Bungee_Layers-Inline.ufo
<glyph name="dollar" format="1">
  <advance width="650"/>
  <unicode hex="0024"/>
  <outline>
    <contour>
      <point x="390" y="90" type="line" smooth="yes"/>
      <point x="458" y="90"/>
      <point x="501" y="132"/>
      <point x="501" y="191" type="curve" smooth="yes"/>
      <point x="501" y="249" type="line" smooth="yes"/>
      <point x="501" y="319"/>
      <point x="472" y="339"/>
      <point x="432" y="347" type="curve" smooth="yes"/>
      <point x="221" y="390" type="line" smooth="yes"/>
      <point x="190" y="396"/>
      <point x="170" y="410"/>
      <point x="170" y="457" type="curve" smooth="yes"/>
      <point x="170" y="539" type="line" smooth="yes"/>
      <point x="170" y="586"/>
      <point x="206" y="620"/>
      <point x="262" y="620" type="curve" smooth="yes"/>
      <point x="484" y="620" type="line"/>
      <point x="484" y="630" type="line"/>
      <point x="338" y="630" type="line"/>
      <point x="338" y="720" type="line"/>
      <point x="328" y="720" type="line"/>
      <point x="328" y="630" type="line"/>
      <point x="262" y="630" type="line" smooth="yes"/>
      <point x="200" y="630"/>
      <point x="160" y="592"/>
      <point x="160" y="539" type="curve" smooth="yes"/>
      <point x="160" y="457" type="line" smooth="yes"/>
      <point x="160" y="402"/>
      <point x="184" y="387"/>
      <point x="219" y="380" type="curve" smooth="yes"/>
      <point x="430" y="337" type="line" smooth="yes"/>
      <point x="467" y="329"/>
      <point x="491" y="312"/>
      <point x="491" y="249" type="curve" smooth="yes"/>
      <point x="491" y="191" type="line" smooth="yes"/>
      <point x="491" y="138"/>
      <point x="452" y="100"/>
      <point x="390" y="100" type="curve" smooth="yes"/>
      <point x="141" y="100" type="line"/>
      <point x="141" y="90" type="line"/>
      <point x="328" y="90" type="line"/>
      <point x="328" y="0" type="line"/>
      <point x="338" y="0" type="line"/>
      <point x="338" y="90" type="line"/>
    </contour>
  </outline>
</glyph>
<glyph name="ampersand" format="1">
  <advance width="766"/>
  <unicode hex="0026"/>
  <outline>
    <contour>
      <point x="250.0" y="90" type="curve" smooth="yes"/>
      <point x="491.0" y="90" type="line" smooth="yes"/>
      <point x="550.0" y="90"/>
      <point x="584.0" y="119"/>
      <point x="584.0" y="181" type="curve" smooth="yes"/>
      <point x="584.0" y="306" type="line"/>
      <point x="649.0" y="306" type="line"/>
      <point x="649.0" y="316" type="line"/>
      <point x="574.0" y="316" type="line"/>
      <point x="574.0" y="181" type="line" smooth="yes"/>
      <point x="574.0" y="127"/>
      <point x="544.0" y="100"/>
      <point x="491.0" y="100" type="curve" smooth="yes"/>
      <point x="256.0" y="100" type="line" smooth="yes"/>
      <point x="177.0" y="100"/>
      <point x="143.0" y="130"/>
      <point x="143.0" y="198" type="curve" smooth="yes"/>
      <point x="143.0" y="259" type="line" smooth="yes"/>
      <point x="143.0" y="319"/>
      <point x="179.0" y="363"/>
      <point x="255.0" y="363" type="curve" smooth="yes"/>
      <point x="322.0" y="363" type="line"/>
      <point x="322.0" y="373" type="line"/>
      <point x="312.0" y="373" type="line" smooth="yes"/>
      <point x="249.0" y="373"/>
      <point x="220.0" y="404"/>
      <point x="220.0" y="469" type="curve" smooth="yes"/>
      <point x="220.0" y="523" type="line" smooth="yes"/>
      <point x="220.0" y="591"/>
      <point x="253.0" y="620"/>
      <point x="328.0" y="620" type="curve" smooth="yes"/>
      <point x="453.0" y="620" type="line"/>
      <point x="453.0" y="630" type="line"/>
      <point x="328.0" y="630" type="line" smooth="yes"/>
      <point x="247.0" y="630"/>
      <point x="210.0" y="599"/>
      <point x="210.0" y="525" type="curve" smooth="yes"/>
      <point x="210.0" y="469" type="line" smooth="yes"/>
      <point x="210.0" y="417"/>
      <point x="227.0" y="386"/>
      <point x="262.0" y="372" type="curve"/>
      <point x="255.0" y="372" type="line" smooth="yes"/>
      <point x="172.0" y="372"/>
      <point x="133.0" y="325"/>
      <point x="133.0" y="259" type="curve" smooth="yes"/>
      <point x="133.0" y="198" type="line" smooth="yes"/>
      <point x="133.0" y="124"/>
      <point x="171.0" y="90"/>
    </contour>
  </outline>
</glyph>
<glyph name="asterisk" format="1">
  <advance width="718"/>
  <unicode hex="002A"/>
  <outline>
    <contour>
      <point x="470.0" y="268" type="line"/>
      <point x="478.0" y="274" type="line"/>
      <point x="372.0" y="426" type="line"/>
      <point x="544.0" y="482" type="line"/>
      <point x="540.0" y="492" type="line"/>
      <point x="366.0" y="435" type="line"/>
      <point x="366.0" y="630" type="line"/>
      <point x="356.0" y="630" type="line"/>
      <point x="356.0" y="435" type="line"/>
      <point x="182.0" y="492" type="line"/>
      <point x="178.0" y="482" type="line"/>
      <point x="350.0" y="426" type="line"/>
      <point x="244.0" y="274" type="line"/>
      <point x="252.0" y="268" type="line"/>
      <point x="361.0" y="423" type="line"/>
    </contour>
  </outline>
</glyph>
<glyph name="period" format="1">
  <advance width="384"/>
  <unicode hex="002E"/>
  <outline>
    <contour>
      <point x="187.0" y="90" type="line"/>
      <point x="197.0" y="90" type="line"/>
      <point x="197.0" y="185" type="line"/>
      <point x="187.0" y="185" type="line"/>
    </contour>
  </outline>
</glyph>
<glyph name="one" format="1">
  <advance width="601"/>
  <unicode hex="0031"/>
  <outline>
    <contour>
      <point x="138.0" y="85" type="line"/>
      <point x="472.0" y="85" type="line"/>
      <point x="472.0" y="95" type="line"/>
      <point x="318.0" y="95" type="line"/>
      <point x="318.0" y="630" type="line"/>
      <point x="158.0" y="630" type="line"/>
      <point x="158.0" y="620" type="line"/>
      <point x="308.0" y="620" type="line"/>
      <point x="308.0" y="95" type="line"/>
      <point x="138.0" y="95" type="line"/>
    </contour>
  </outline>
</glyph>
<glyph name="four" format="1">
  <advance width="709"/>
  <unicode hex="0034"/>
  <outline>
    <contour>
      <point x="522.0" y="90" type="line"/>
      <point x="532.0" y="90" type="line"/>
      <point x="532.0" y="630" type="line"/>
      <point x="522.0" y="630" type="line"/>
      <point x="522.0" y="277" type="line"/>
      <point x="283.0" y="277" type="line" smooth="yes"/>
      <point x="214.0" y="277"/>
      <point x="182.0" y="308"/>
      <point x="182.0" y="372" type="curve" smooth="yes"/>
      <point x="182.0" y="630" type="line"/>
      <point x="172.0" y="630" type="line"/>
      <point x="172.0" y="372" type="line" smooth="yes"/>
      <point x="172.0" y="302"/>
      <point x="206.0" y="267"/>
      <point x="283.0" y="267" type="curve" smooth="yes"/>
      <point x="522.0" y="267" type="line"/>
    </contour>
  </outline>
</glyph>
<glyph name="eight" format="1">
  <advance width="711"/>
  <unicode hex="0038"/>
  <outline>
    <contour>
      <point x="356.0" y="67" type="curve" smooth="yes"/>
      <point x="517.0" y="67"/>
      <point x="558.0" y="111"/>
      <point x="558.0" y="173" type="curve" smooth="yes"/>
      <point x="558.0" y="266" type="line" smooth="yes"/>
      <point x="558.0" y="317"/>
      <point x="529.0" y="356"/>
      <point x="432.0" y="369" type="curve"/>
      <point x="496.0" y="380"/>
      <point x="522.0" y="408"/>
      <point x="522.0" y="455" type="curve" smooth="yes"/>
      <point x="522.0" y="550" type="line" smooth="yes"/>
      <point x="522.0" y="620"/>
      <point x="473.0" y="652"/>
      <point x="356.0" y="652" type="curve" smooth="yes"/>
      <point x="239.0" y="652"/>
      <point x="189.0" y="620"/>
      <point x="189.0" y="558" type="curve" smooth="yes"/>
      <point x="189.0" y="455" type="line" smooth="yes"/>
      <point x="189.0" y="408"/>
      <point x="216.0" y="380"/>
      <point x="280.0" y="369" type="curve"/>
      <point x="183.0" y="356"/>
      <point x="153.0" y="316"/>
      <point x="153.0" y="265" type="curve" smooth="yes"/>
      <point x="153.0" y="173" type="line" smooth="yes"/>
      <point x="153.0" y="111"/>
      <point x="195.0" y="67"/>
    </contour>
    <contour>
      <point x="199.0" y="558" type="line" smooth="yes"/>
      <point x="199.0" y="616"/>
      <point x="251.0" y="642"/>
      <point x="356.0" y="642" type="curve" smooth="yes"/>
      <point x="461.0" y="642"/>
      <point x="512.0" y="616"/>
      <point x="512.0" y="550" type="curve" smooth="yes"/>
      <point x="512.0" y="455" type="line" smooth="yes"/>
      <point x="512.0" y="397"/>
      <point x="462.0" y="374"/>
      <point x="356.0" y="374" type="curve" smooth="yes"/>
      <point x="250.0" y="374"/>
      <point x="199.0" y="397"/>
      <point x="199.0" y="455" type="curve" smooth="yes"/>
    </contour>
    <contour>
      <point x="163.0" y="265" type="line" smooth="yes"/>
      <point x="163.0" y="323"/>
      <point x="212.0" y="364"/>
      <point x="356.0" y="364" type="curve" smooth="yes"/>
      <point x="500.0" y="364"/>
      <point x="548.0" y="324"/>
      <point x="548.0" y="266" type="curve" smooth="yes"/>
      <point x="548.0" y="173" type="line" smooth="yes"/>
      <point x="548.0" y="115"/>
      <point x="501.0" y="77"/>
      <point x="356.0" y="77" type="curve" smooth="yes"/>
      <point x="211.0" y="77"/>
      <point x="163.0" y="115"/>
      <point x="163.0" y="173" type="curve" smooth="yes"/>
    </contour>
  </outline>
</glyph>
<glyph name="question" format="1">
  <advance width="656"/>
  <unicode hex="003F"/>
  <outline>
    <contour>
      <point x="225.0" y="340" type="line"/>
      <point x="441.0" y="370" type="line" smooth="yes"/>
      <point x="472.0" y="374"/>
      <point x="498.0" y="383"/>
      <point x="498.0" y="424" type="curve" smooth="yes"/>
      <point x="498.0" y="537" type="line" smooth="yes"/>
      <point x="498.0" y="610"/>
      <point x="450.0" y="628"/>
      <point x="404.0" y="628" type="curve" smooth="yes"/>
      <point x="135.0" y="628" type="line"/>
      <point x="135.0" y="618" type="line"/>
      <point x="404.0" y="618" type="line" smooth="yes"/>
      <point x="445.0" y="618"/>
      <point x="488.0" y="602"/>
      <point x="488.0" y="537" type="curve" smooth="yes"/>
      <point x="488.0" y="424" type="line" smooth="yes"/>
      <point x="488.0" y="389"/>
      <point x="464.0" y="384"/>
      <point x="439.0" y="380" type="curve" smooth="yes"/>
      <point x="223.0" y="351" type="line"/>
    </contour>
    <contour>
      <point x="248.0" y="80" type="line"/>
      <point x="258.0" y="80" type="line"/>
      <point x="258.0" y="123" type="line"/>
      <point x="248.0" y="123" type="line"/>
    </contour>
  </outline>
</glyph>
<glyph name="B" format="1">
  <advance width="725"/>
  <unicode hex="0042"/>
  <outline>
    <contour>
      <point x="180.0" y="90" type="line"/>
      <point x="449.0" y="90" type="line" smooth="yes"/>
      <point x="561.0" y="90"/>
      <point x="580.0" y="131"/>
      <point x="580.0" y="190" type="curve" smooth="yes"/>
      <point x="580.0" y="254" type="line" smooth="yes"/>
      <point x="580.0" y="320"/>
      <point x="561.0" y="369"/>
      <point x="450.0" y="369" type="curve" smooth="yes"/>
      <point x="450.0" y="369" type="line"/>
      <point x="507.0" y="384"/>
      <point x="514.0" y="420"/>
      <point x="514.0" y="460" type="curve" smooth="yes"/>
      <point x="514.0" y="524" type="line" smooth="yes"/>
      <point x="514.0" y="582"/>
      <point x="494.0" y="630"/>
      <point x="383.0" y="630" type="curve" smooth="yes"/>
      <point x="180.0" y="630" type="line"/>
    </contour>
    <contour>
      <point x="383.0" y="620" type="line" smooth="yes"/>
      <point x="484.0" y="620"/>
      <point x="504.0" y="578"/>
      <point x="504.0" y="524" type="curve" smooth="yes"/>
      <point x="504.0" y="460" type="line" smooth="yes"/>
      <point x="504.0" y="412"/>
      <point x="493.0" y="369"/>
      <point x="383.0" y="369" type="curve" smooth="yes"/>
      <point x="190.0" y="369" type="line"/>
      <point x="190.0" y="620" type="line"/>
    </contour>
    <contour>
      <point x="450.0" y="359" type="line" smooth="yes"/>
      <point x="551.0" y="359"/>
      <point x="570.0" y="314"/>
      <point x="570.0" y="254" type="curve" smooth="yes"/>
      <point x="570.0" y="190" type="line" smooth="yes"/>
      <point x="570.0" y="135"/>
      <point x="549.0" y="100"/>
      <point x="449.0" y="100" type="curve" smooth="yes"/>
      <point x="190.0" y="100" type="line"/>
      <point x="190.0" y="359" type="line"/>
    </contour>
  </outline>
</glyph>
<glyph name="K" format="1">
  <advance width="746"/>
  <unicode hex="004B"/>
  <outline>
    <contour>
      <point x="188.0" y="90" type="line"/>
      <point x="188.0" y="354" type="line"/>
      <point x="457.0" y="354" type="line" smooth="yes"/>
      <point x="531.0" y="354"/>
      <point x="568.0" y="330"/>
      <point x="568.0" y="266" type="curve" smooth="yes"/>
      <point x="568.0" y="90" type="line"/>
      <point x="578.0" y="90" type="line"/>
      <point x="578.0" y="266" type="line" smooth="yes"/>
      <point x="578.0" y="336"/>
      <point x="539.0" y="364"/>
      <point x="457.0" y="364" type="curve" smooth="yes"/>
      <point x="416.0" y="364" type="line"/>
      <point x="531.0" y="630" type="line"/>
      <point x="520.0" y="630" type="line"/>
      <point x="405.0" y="364" type="line"/>
      <point x="188.0" y="364" type="line"/>
      <point x="188.0" y="630" type="line"/>
      <point x="178.0" y="630" type="line"/>
      <point x="178.0" y="90" type="line"/>
    </contour>
  </outline>
</glyph>
<glyph name="N" format="1">
  <advance width="753"/>
  <unicode hex="004E"/>
  <outline>
    <contour>
      <point x="201.0" y="622" type="line"/>
      <point x="194.0" y="629"/>
      <point x="192.0" y="631"/>
      <point x="186.0" y="631" type="curve" smooth="yes"/>
      <point x="180.0" y="631"/>
      <point x="174.0" y="627"/>
      <point x="174.0" y="619" type="curve" smooth="yes"/>
      <point x="174.0" y="90" type="line"/>
      <point x="184.0" y="90" type="line"/>
      <point x="184.0" y="617" type="line" smooth="yes"/>
      <point x="184.0" y="618"/>
      <point x="184.0" y="620"/>
      <point x="186.0" y="620" type="curve" smooth="yes"/>
      <point x="188.0" y="620"/>
      <point x="189.0" y="619"/>
      <point x="191.0" y="617" type="curve" smooth="yes"/>
      <point x="569.0" y="193" type="line"/>
      <point x="569.0" y="90" type="line"/>
      <point x="579.0" y="90" type="line"/>
      <point x="579.0" y="630" type="line"/>
      <point x="569.0" y="630" type="line"/>
      <point x="569.0" y="208" type="line"/>
    </contour>
  </outline>
</glyph>
<glyph name="P" format="1">
  <advance width="682"/>
  <unicode hex="0050"/>
  <outline>
    <contour>
      <point x="397.0" y="287" type="line" smooth="yes"/>
      <point x="523.0" y="287"/>
      <point x="547.0" y="342"/>
      <point x="547.0" y="420" type="curve" smooth="yes"/>
      <point x="547.0" y="494" type="line" smooth="yes"/>
      <point x="547.0" y="572"/>
      <point x="523.0" y="630"/>
      <point x="397.0" y="630" type="curve" smooth="yes"/>
      <point x="181.0" y="630" type="line"/>
      <point x="181.0" y="90" type="line"/>
      <point x="191.0" y="90" type="line"/>
      <point x="191.0" y="287" type="line"/>
    </contour>
    <contour>
      <point x="191.0" y="297" type="line"/>
      <point x="191.0" y="620" type="line"/>
      <point x="397.0" y="620" type="line" smooth="yes"/>
      <point x="515.0" y="620"/>
      <point x="537.0" y="566"/>
      <point x="537.0" y="494" type="curve" smooth="yes"/>
      <point x="537.0" y="420" type="line" smooth="yes"/>
      <point x="537.0" y="348"/>
      <point x="515.0" y="297"/>
      <point x="397.0" y="297" type="curve" smooth="yes"/>
    </contour>
  </outline>
</glyph>
<glyph name="R" format="1">
  <advance width="743"/>
  <unicode hex="0052"/>
  <outline>
    <contour>
      <point x="405.0" y="620" type="line" smooth="yes"/>
      <point x="476.0" y="620"/>
      <point x="509.0" y="578"/>
      <point x="509.0" y="516" type="curve" smooth="yes"/>
      <point x="509.0" y="446" type="line" smooth="yes"/>
      <point x="509.0" y="372"/>
      <point x="488.0" y="331"/>
      <point x="405.0" y="331" type="curve" smooth="yes"/>
      <point x="187.0" y="331" type="line"/>
      <point x="187.0" y="620" type="line"/>
    </contour>
    <contour>
      <point x="187.0" y="90" type="line"/>
      <point x="187.0" y="322" type="line"/>
      <point x="470.0" y="322" type="line" smooth="yes"/>
      <point x="546.0" y="322"/>
      <point x="581.0" y="290"/>
      <point x="581.0" y="224" type="curve" smooth="yes"/>
      <point x="581.0" y="90" type="line"/>
      <point x="591.0" y="90" type="line"/>
      <point x="591.0" y="224" type="line" smooth="yes"/>
      <point x="591.0" y="294"/>
      <point x="552.0" y="331"/>
      <point x="470.0" y="331" type="curve" smooth="yes"/>
      <point x="459.0" y="331" type="line"/>
      <point x="507.0" y="346"/>
      <point x="519.0" y="386"/>
      <point x="519.0" y="447" type="curve" smooth="yes"/>
      <point x="519.0" y="516" type="line" smooth="yes"/>
      <point x="519.0" y="582"/>
      <point x="483.0" y="630"/>
      <point x="405.0" y="630" type="curve" smooth="yes"/>
      <point x="177.0" y="630" type="line"/>
      <point x="177.0" y="90" type="line"/>
    </contour>
  </outline>
</glyph>
<glyph name="S" format="1">
  <advance width="650"/>
  <unicode hex="0053"/>
  <outline>
    <contour>
      <point x="484.0" y="630" type="line"/>
      <point x="262.0" y="630" type="line" smooth="yes"/>
      <point x="200.0" y="630"/>
      <point x="160.0" y="592"/>
      <point x="160.0" y="539" type="curve" smooth="yes"/>
      <point x="160.0" y="457" type="line" smooth="yes"/>
      <point x="160.0" y="402"/>
      <point x="184.0" y="387"/>
      <point x="219.0" y="380" type="curve" smooth="yes"/>
      <point x="430.0" y="337" type="line" smooth="yes"/>
      <point x="467.0" y="329"/>
      <point x="491.0" y="312"/>
      <point x="491.0" y="249" type="curve" smooth="yes"/>
      <point x="491.0" y="191" type="line" smooth="yes"/>
      <point x="491.0" y="138"/>
      <point x="452.0" y="100"/>
      <point x="390.0" y="100" type="curve" smooth="yes"/>
      <point x="141.0" y="100" type="line"/>
      <point x="141.0" y="90" type="line"/>
      <point x="390.0" y="90" type="line" smooth="yes"/>
      <point x="458.0" y="90"/>
      <point x="501.0" y="132"/>
      <point x="501.0" y="191" type="curve" smooth="yes"/>
      <point x="501.0" y="249" type="line" smooth="yes"/>
      <point x="501.0" y="319"/>
      <point x="472.0" y="339"/>
      <point x="432.0" y="347" type="curve" smooth="yes"/>
      <point x="221.0" y="390" type="line" smooth="yes"/>
      <point x="190.0" y="396"/>
      <point x="170.0" y="410"/>
      <point x="170.0" y="457" type="curve" smooth="yes"/>
      <point x="170.0" y="539" type="line" smooth="yes"/>
      <point x="170.0" y="586"/>
      <point x="206.0" y="620"/>
      <point x="262.0" y="620" type="curve" smooth="yes"/>
      <point x="484.0" y="620" type="line"/>
    </contour>
  </outline>
</glyph>
<glyph name="T" format="1">
  <advance width="656"/>
  <unicode hex="0054"/>
  <outline>
    <contour>
      <point x="323.0" y="90" type="line"/>
      <point x="333.0" y="90" type="line"/>
      <point x="333.0" y="620" type="line"/>
      <point x="538.0" y="620" type="line"/>
      <point x="538.0" y="630" type="line"/>
      <point x="118.0" y="630" type="line"/>
      <point x="118.0" y="620" type="line"/>
      <point x="323.0" y="620" type="line"/>
    </contour>
  </outline>
</glyph>
<glyph name="U" format="1">
  <advance width="746"/>
  <unicode hex="0055"/>
  <outline>
    <contour>
      <point x="174.0" y="630" type="line"/>
      <point x="174.0" y="213" type="line" smooth="yes"/>
      <point x="174.0" y="132"/>
      <point x="217.0" y="78"/>
      <point x="374.0" y="78" type="curve" smooth="yes"/>
      <point x="531.0" y="78"/>
      <point x="575.0" y="132"/>
      <point x="575.0" y="213" type="curve" smooth="yes"/>
      <point x="575.0" y="630" type="line"/>
      <point x="565.0" y="630" type="line"/>
      <point x="565.0" y="213" type="line" smooth="yes"/>
      <point x="565.0" y="138"/>
      <point x="523.0" y="88"/>
      <point x="374.0" y="88" type="curve" smooth="yes"/>
      <point x="225.0" y="88"/>
      <point x="184.0" y="138"/>
      <point x="184.0" y="213" type="curve" smooth="yes"/>
      <point x="184.0" y="630" type="line"/>
    </contour>
  </outline>
</glyph>
<glyph name="W" format="1">
  <advance width="831"/>
  <unicode hex="0057"/>
  <outline>
    <contour>
      <point x="439.0" y="345" type="curve" smooth="yes"/>
      <point x="394.0" y="345" type="line"/>
      <point x="373.0" y="345"/>
      <point x="362.0" y="336"/>
      <point x="345.0" y="298" type="curve" smooth="yes"/>
      <point x="263.0" y="114" type="line" smooth="yes"/>
      <point x="257.0" y="100"/>
      <point x="246.0" y="100"/>
      <point x="236.0" y="100" type="curve" smooth="yes"/>
      <point x="231.0" y="100" type="line" smooth="yes"/>
      <point x="220.0" y="100"/>
      <point x="210.0" y="110"/>
      <point x="208.0" y="121" type="curve"/>
      <point x="183.0" y="235" type="line" smooth="yes"/>
      <point x="178.0" y="260"/>
      <point x="178.0" y="306"/>
      <point x="178.0" y="336" type="curve"/>
      <point x="178.0" y="630" type="line"/>
      <point x="168.0" y="630" type="line"/>
      <point x="168.0" y="335" type="line" smooth="yes"/>
      <point x="168.0" y="305"/>
      <point x="168.0" y="259"/>
      <point x="173.0" y="234" type="curve" smooth="yes"/>
      <point x="198.0" y="121" type="line" smooth="yes"/>
      <point x="203.0" y="99"/>
      <point x="215.0" y="90"/>
      <point x="231.0" y="90" type="curve" smooth="yes"/>
      <point x="238.0" y="90" type="line" smooth="yes"/>
      <point x="250.0" y="90"/>
      <point x="265.0" y="93"/>
      <point x="271.0" y="107" type="curve" smooth="yes"/>
      <point x="353.0" y="293" type="line" smooth="yes"/>
      <point x="369.0" y="329"/>
      <point x="378.0" y="335"/>
      <point x="394.0" y="335" type="curve"/>
      <point x="439.0" y="335" type="line"/>
      <point x="455.0" y="335"/>
      <point x="464.0" y="329"/>
      <point x="480.0" y="293" type="curve" smooth="yes"/>
      <point x="562.0" y="107" type="line" smooth="yes"/>
      <point x="568.0" y="93"/>
      <point x="583.0" y="90"/>
      <point x="595.0" y="90" type="curve" smooth="yes"/>
      <point x="602.0" y="90" type="line" smooth="yes"/>
      <point x="618.0" y="90"/>
      <point x="630.0" y="99"/>
      <point x="635.0" y="121" type="curve" smooth="yes"/>
      <point x="660.0" y="234" type="line" smooth="yes"/>
      <point x="665.0" y="259"/>
      <point x="665.0" y="305"/>
      <point x="665.0" y="335" type="curve" smooth="yes"/>
      <point x="665.0" y="630" type="line"/>
      <point x="655.0" y="630" type="line"/>
      <point x="655.0" y="336" type="line" smooth="yes"/>
      <point x="655.0" y="306"/>
      <point x="655.0" y="260"/>
      <point x="650.0" y="235" type="curve" smooth="yes"/>
      <point x="625.0" y="121" type="line" smooth="yes"/>
      <point x="623.0" y="110"/>
      <point x="613.0" y="100"/>
      <point x="602.0" y="100" type="curve" smooth="yes"/>
      <point x="597.0" y="100" type="line" smooth="yes"/>
      <point x="587.0" y="100"/>
      <point x="576.0" y="100"/>
      <point x="570.0" y="114" type="curve" smooth="yes"/>
      <point x="488.0" y="298" type="line" smooth="yes"/>
      <point x="471.0" y="336"/>
      <point x="460.0" y="345"/>
    </contour>
    <contour>
      <point x="415.0" y="747.0" type="move" name="top"/>
    </contour>
    <contour>
      <point x="415.0" y="0.0" type="move" name="bottom"/>
    </contour>
  </outline>
</glyph>
<glyph name="X" format="1">
  <advance width="737"/>
  <unicode hex="0058"/>
  <outline>
    <contour>
      <point x="177.0" y="135" type="line" smooth="yes"/>
      <point x="177.0" y="163"/>
      <point x="177.0" y="189"/>
      <point x="191.0" y="208" type="curve" smooth="yes"/>
      <point x="286.0" y="338" type="line" smooth="yes"/>
      <point x="303.0" y="361"/>
      <point x="319.0" y="370"/>
      <point x="339.0" y="370" type="curve" smooth="yes"/>
      <point x="400.0" y="370" type="line" smooth="yes"/>
      <point x="419.0" y="370"/>
      <point x="436.0" y="361"/>
      <point x="453.0" y="338" type="curve" smooth="yes"/>
      <point x="545.0" y="208" type="line" smooth="yes"/>
      <point x="559.0" y="189"/>
      <point x="560.0" y="163"/>
      <point x="560.0" y="135" type="curve" smooth="yes"/>
      <point x="560.0" y="90" type="line"/>
      <point x="570.0" y="90" type="line"/>
      <point x="570.0" y="135" type="line" smooth="yes"/>
      <point x="570.0" y="164"/>
      <point x="569.0" y="191"/>
      <point x="554.0" y="212" type="curve" smooth="yes"/>
      <point x="462.0" y="342" type="line" smooth="yes"/>
      <point x="449.0" y="360"/>
      <point x="438.0" y="370"/>
      <point x="424.0" y="375" type="curve"/>
      <point x="438.0" y="380"/>
      <point x="450.0" y="390"/>
      <point x="462.0" y="408" type="curve" smooth="yes"/>
      <point x="555.0" y="538" type="line" smooth="yes"/>
      <point x="571.0" y="560"/>
      <point x="570.0" y="586"/>
      <point x="570.0" y="615" type="curve" smooth="yes"/>
      <point x="570.0" y="630" type="line"/>
      <point x="560.0" y="630" type="line"/>
      <point x="560.0" y="615" type="line" smooth="yes"/>
      <point x="560.0" y="587"/>
      <point x="560.0" y="561"/>
      <point x="546.0" y="542" type="curve" smooth="yes"/>
      <point x="453.0" y="412" type="line" smooth="yes"/>
      <point x="436.0" y="389"/>
      <point x="420.0" y="380"/>
      <point x="400.0" y="380" type="curve" smooth="yes"/>
      <point x="339.0" y="380" type="line" smooth="yes"/>
      <point x="321.0" y="380"/>
      <point x="305.0" y="388"/>
      <point x="287.0" y="412" type="curve" smooth="yes"/>
      <point x="191.0" y="542" type="line" smooth="yes"/>
      <point x="177.0" y="561"/>
      <point x="177.0" y="587"/>
      <point x="177.0" y="615" type="curve" smooth="yes"/>
      <point x="177.0" y="630" type="line"/>
      <point x="167.0" y="630" type="line"/>
      <point x="167.0" y="615" type="line" smooth="yes"/>
      <point x="167.0" y="586"/>
      <point x="167.0" y="559"/>
      <point x="182.0" y="538" type="curve" smooth="yes"/>
      <point x="278.0" y="408" type="line" smooth="yes"/>
      <point x="291.0" y="390"/>
      <point x="302.0" y="380"/>
      <point x="315.0" y="375" type="curve"/>
      <point x="301.0" y="370"/>
      <point x="289.0" y="360"/>
      <point x="277.0" y="342" type="curve" smooth="yes"/>
      <point x="182.0" y="212" type="line" smooth="yes"/>
      <point x="166.0" y="190"/>
      <point x="167.0" y="164"/>
      <point x="167.0" y="135" type="curve" smooth="yes"/>
      <point x="167.0" y="90" type="line"/>
      <point x="177.0" y="90" type="line"/>
    </contour>
    <contour>
      <point x="368.0" y="747.0" type="move" name="top"/>
    </contour>
    <contour>
      <point x="368.0" y="0.0" type="move" name="bottom"/>
    </contour>
  </outline>
</glyph>
<glyph name="bracketleft" format="1">
  <advance width="429"/>
  <unicode hex="005B"/>
  <outline>
    <contour>
      <point x="157.0" y="708" type="line"/>
      <point x="157.0" y="11" type="line"/>
      <point x="294.0" y="11" type="line"/>
      <point x="294.0" y="21" type="line"/>
      <point x="167.0" y="21" type="line"/>
      <point x="167.0" y="698" type="line"/>
      <point x="294.0" y="698" type="line"/>
      <point x="294.0" y="708" type="line"/>
    </contour>
  </outline>
</glyph>
<glyph name="degree" format="1">
  <advance width="483"/>
  <unicode hex="00B0"/>
  <outline>
    <contour>
      <point x="370.0" y="581" type="line" smooth="yes"/>
      <point x="370.0" y="639"/>
      <point x="341.0" y="661"/>
      <point x="242.0" y="661" type="curve" smooth="yes"/>
      <point x="144.0" y="661"/>
      <point x="114.0" y="639"/>
      <point x="114.0" y="581" type="curve" smooth="yes"/>
      <point x="114.0" y="452" type="line" smooth="yes"/>
      <point x="114.0" y="394"/>
      <point x="144.0" y="373"/>
      <point x="242.0" y="373" type="curve" smooth="yes"/>
      <point x="341.0" y="373"/>
      <point x="370.0" y="394"/>
      <point x="370.0" y="452" type="curve" smooth="yes"/>
    </contour>
    <contour>
      <point x="242.0" y="383" type="curve" smooth="yes"/>
      <point x="154.0" y="383"/>
      <point x="124.0" y="400"/>
      <point x="124.0" y="452" type="curve" smooth="yes"/>
      <point x="124.0" y="581" type="line" smooth="yes"/>
      <point x="124.0" y="633"/>
      <point x="154.0" y="651"/>
      <point x="242.0" y="651" type="curve" smooth="yes"/>
      <point x="331.0" y="651"/>
      <point x="360.0" y="633"/>
      <point x="360.0" y="581" type="curve" smooth="yes"/>
      <point x="360.0" y="452" type="line" smooth="yes"/>
      <point x="360.0" y="400"/>
      <point x="331.0" y="383"/>
    </contour>
  </outline>
</glyph>
<glyph name="cedilla" format="1">
  <advance width="500"/>
  <unicode hex="00B8"/>
  <outline>
    <contour>
      <point x="272.0" y="97" type="line"/>
      <point x="224.0" y="-36" type="line"/>
      <point x="234.0" y="-36" type="line"/>
      <point x="282.0" y="96" type="line"/>
    </contour>
    <contour>
      <point x="250.0" y="747.0" type="move" name="_top"/>
    </contour>
    <contour>
      <point x="250.0" y="0.0" type="move" name="_bottom"/>
    </contour>
  </outline>
</glyph>
<glyph name="Thorn" format="1">
  <advance width="692"/>
  <unicode hex="00DE"/>
  <outline>
    <contour>
      <point x="177.0" y="90" type="line"/>
      <point x="187.0" y="90" type="line"/>
      <point x="187.0" y="187" type="line"/>
      <point x="393.0" y="187" type="line" smooth="yes"/>
      <point x="519.0" y="187"/>
      <point x="543.0" y="242"/>
      <point x="543.0" y="320" type="curve" smooth="yes"/>
      <point x="543.0" y="395" type="line" smooth="yes"/>
      <point x="543.0" y="473"/>
      <point x="519.0" y="531"/>
      <point x="393.0" y="531" type="curve" smooth="yes"/>
      <point x="187.0" y="531" type="line"/>
      <point x="187.0" y="630" type="line"/>
      <point x="177.0" y="630" type="line"/>
    </contour>
    <contour>
      <point x="187.0" y="197" type="line"/>
      <point x="187.0" y="521" type="line"/>
      <point x="393.0" y="521" type="line" smooth="yes"/>
      <point x="511.0" y="521"/>
      <point x="533.0" y="467"/>
      <point x="533.0" y="395" type="curve" smooth="yes"/>
      <point x="533.0" y="320" type="line" smooth="yes"/>
      <point x="533.0" y="248"/>
      <point x="511.0" y="197"/>
      <point x="393.0" y="197" type="curve" smooth="yes"/>
    </contour>
  </outline>
</glyph>
<glyph name="Aogonek" format="1">
  <advance width="730"/>
  <unicode hex="0104"/>
  <outline>
    <contour>
      <point x="170" y="303" type="line"/>
      <point x="170" y="339"/>
      <point x="176" y="369"/>
      <point x="186" y="396" type="curve"/>
      <point x="250" y="560" type="line"/>
      <point x="263" y="594"/>
      <point x="274" y="620"/>
      <point x="314" y="620" type="curve" smooth="yes"/>
      <point x="412" y="620" type="line" smooth="yes"/>
      <point x="449" y="620"/>
      <point x="460" y="594"/>
      <point x="475" y="559" type="curve"/>
      <point x="544" y="396" type="line"/>
      <point x="554" y="369"/>
      <point x="560" y="339"/>
      <point x="560" y="303" type="curve"/>
      <point x="560" y="272" type="line"/>
      <point x="170" y="272" type="line"/>
    </contour>
    <contour>
      <point x="586" y="-106" type="line"/>
      <point x="562" y="-106" type="line" smooth="yes"/>
      <point x="521" y="-106"/>
      <point x="516" y="-83"/>
      <point x="521" y="-43" type="curve" smooth="yes"/>
      <point x="533" y="42" type="line" smooth="yes"/>
      <point x="537" y="71"/>
      <point x="541" y="76"/>
      <point x="566" y="90" type="curve"/>
      <point x="570" y="90" type="line"/>
      <point x="570" y="303" type="line" smooth="yes"/>
      <point x="570" y="340"/>
      <point x="564" y="371"/>
      <point x="553" y="400" type="curve" smooth="yes"/>
      <point x="484" y="563" type="line" smooth="yes"/>
      <point x="468" y="602"/>
      <point x="456" y="630"/>
      <point x="412" y="630" type="curve" smooth="yes"/>
      <point x="314" y="630" type="line" smooth="yes"/>
      <point x="268" y="630"/>
      <point x="256" y="601"/>
      <point x="241" y="564" type="curve" smooth="yes"/>
      <point x="177" y="400" type="line"/>
      <point x="166" y="371"/>
      <point x="160" y="340"/>
      <point x="160" y="303" type="curve" smooth="yes"/>
      <point x="160" y="90" type="line"/>
      <point x="170" y="90" type="line"/>
      <point x="170" y="262" type="line"/>
      <point x="560" y="262" type="line"/>
      <point x="560" y="98" type="line"/>
      <point x="532" y="82"/>
      <point x="528" y="74"/>
      <point x="523" y="42" type="curve" smooth="yes"/>
      <point x="511" y="-41" type="line" smooth="yes"/>
      <point x="503" y="-91"/>
      <point x="513" y="-116"/>
      <point x="562" y="-116" type="curve" smooth="yes"/>
      <point x="586" y="-116" type="line"/>
    </contour>
  </outline>
</glyph>
<glyph name="Lslash" format="1">
  <advance width="705"/>
  <unicode hex="0141"/>
  <outline>
    <contour>
      <point x="556" y="90" type="line"/>
      <point x="556" y="297" type="line"/>
      <point x="546" y="297" type="line"/>
      <point x="546" y="100" type="line"/>
      <point x="198" y="100" type="line"/>
      <point x="198" y="393" type="line"/>
      <point x="310" y="411" type="line"/>
      <point x="310" y="421" type="line"/>
      <point x="198" y="403" type="line"/>
      <point x="198" y="630" type="line"/>
      <point x="188" y="630" type="line"/>
      <point x="188" y="401" type="line"/>
      <point x="110" y="388" type="line"/>
      <point x="110" y="378" type="line"/>
      <point x="188" y="391" type="line"/>
      <point x="188" y="90" type="line"/>
    </contour>
  </outline>
</glyph>
<glyph name="Eng" format="1">
  <advance width="746"/>
  <unicode hex="014A"/>
  <outline>
    <contour>
      <point x="445.0" y="1" type="line"/>
      <point x="537.0" y="1"/>
      <point x="572.0" y="30"/>
      <point x="572.0" y="100" type="curve" smooth="yes"/>
      <point x="572.0" y="507" type="line" smooth="yes"/>
      <point x="572.0" y="588"/>
      <point x="529.0" y="642"/>
      <point x="372.0" y="642" type="curve"/>
      <point x="215.0" y="642"/>
      <point x="171.0" y="588"/>
      <point x="171.0" y="507" type="curve" smooth="yes"/>
      <point x="171.0" y="90" type="line"/>
      <point x="181.0" y="90" type="line"/>
      <point x="181.0" y="507" type="line" smooth="yes"/>
      <point x="181.0" y="582"/>
      <point x="223.0" y="632"/>
      <point x="372.0" y="632" type="curve"/>
      <point x="521.0" y="632"/>
      <point x="562.0" y="582"/>
      <point x="562.0" y="507" type="curve" smooth="yes"/>
      <point x="562.0" y="100" type="line" smooth="yes"/>
      <point x="562.0" y="36"/>
      <point x="527.0" y="11"/>
      <point x="445.0" y="11" type="curve"/>
    </contour>
  </outline>
</glyph>
<glyph name="Schwa" format="1">
  <advance width="715"/>
  <unicode hex="018F"/>
  <outline>
    <contour>
      <point x="547.0" y="364" type="line"/>
      <point x="157.0" y="364" type="line"/>
      <point x="157.0" y="217" type="line" smooth="yes"/>
      <point x="157.0" y="125"/>
      <point x="194.0" y="88"/>
      <point x="358.0" y="88" type="curve" smooth="yes"/>
      <point x="520.0" y="88"/>
      <point x="557.0" y="125"/>
      <point x="557.0" y="217" type="curve" smooth="yes"/>
      <point x="557.0" y="497" type="line" smooth="yes"/>
      <point x="557.0" y="592"/>
      <point x="523.0" y="630"/>
      <point x="388.0" y="630" type="curve" smooth="yes"/>
      <point x="215.0" y="630" type="line"/>
      <point x="215.0" y="620" type="line"/>
      <point x="388.0" y="620" type="line" smooth="yes"/>
      <point x="513.0" y="620"/>
      <point x="547.0" y="586"/>
      <point x="547.0" y="497" type="curve" smooth="yes"/>
    </contour>
    <contour>
      <point x="547.0" y="354" type="line"/>
      <point x="547.0" y="217" type="line" smooth="yes"/>
      <point x="547.0" y="129"/>
      <point x="508.0" y="98"/>
      <point x="358.0" y="98" type="curve" smooth="yes"/>
      <point x="206.0" y="98"/>
      <point x="167.0" y="129"/>
      <point x="167.0" y="217" type="curve" smooth="yes"/>
      <point x="167.0" y="354" type="line"/>
    </contour>
  </outline>
</glyph>
<glyph name="Uhorn" format="1">
  <advance width="756"/>
  <unicode hex="01AF"/>
  <outline>
    <contour>
      <point x="554" y="632" type="line"/>
      <point x="634" y="632"/>
      <point x="659" y="680"/>
      <point x="659" y="724" type="curve" smooth="yes"/>
      <point x="659" y="733" type="line"/>
      <point x="649" y="733" type="line"/>
      <point x="649" y="724" type="line" smooth="yes"/>
      <point x="649" y="682"/>
      <point x="620" y="642"/>
      <point x="554" y="642" type="curve"/>
    </contour>
    <contour>
      <point x="174" y="630" type="line"/>
      <point x="174" y="213" type="line" smooth="yes"/>
      <point x="174" y="132"/>
      <point x="217" y="78"/>
      <point x="374" y="78" type="curve" smooth="yes"/>
      <point x="531" y="78"/>
      <point x="575" y="132"/>
      <point x="575" y="213" type="curve" smooth="yes"/>
      <point x="575" y="630" type="line"/>
      <point x="565" y="630" type="line"/>
      <point x="565" y="213" type="line" smooth="yes"/>
      <point x="565" y="138"/>
      <point x="523" y="88"/>
      <point x="374" y="88" type="curve" smooth="yes"/>
      <point x="225" y="88"/>
      <point x="184" y="138"/>
      <point x="184" y="213" type="curve" smooth="yes"/>
      <point x="184" y="630" type="line"/>
    </contour>
  </outline>
</glyph>
<glyph name="ascript" format="1">
  <advance width="746"/>
  <unicode hex="0251"/>
  <outline>
    <contour>
      <point x="568.0" y="90" type="line"/>
      <point x="568.0" y="507" type="line" smooth="yes"/>
      <point x="568.0" y="588"/>
      <point x="522.0" y="642"/>
      <point x="366.0" y="642" type="curve" smooth="yes"/>
      <point x="210.0" y="642"/>
      <point x="166.0" y="588"/>
      <point x="166.0" y="507" type="curve" smooth="yes"/>
      <point x="166.0" y="225" type="line" smooth="yes"/>
      <point x="166.0" y="144"/>
      <point x="201.0" y="90"/>
      <point x="326.0" y="90" type="curve"/>
    </contour>
    <contour>
      <point x="176.0" y="225" type="curve" smooth="yes"/>
      <point x="176.0" y="507" type="line" smooth="yes"/>
      <point x="176.0" y="582"/>
      <point x="218.0" y="632"/>
      <point x="366.0" y="632" type="curve" smooth="yes"/>
      <point x="514.0" y="632"/>
      <point x="558.0" y="582"/>
      <point x="558.0" y="507" type="curve" smooth="yes"/>
      <point x="558.0" y="100" type="line"/>
      <point x="326.0" y="100" type="line"/>
      <point x="209.0" y="100"/>
      <point x="176.0" y="150"/>
    </contour>
  </outline>
</glyph>
<glyph name="commaturnedmod" format="1">
  <advance width="500"/>
  <unicode hex="02BB"/>
  <outline>
    <contour>
      <point x="191.0" y="490" type="line"/>
      <point x="309.0" y="490" type="line"/>
      <point x="309.0" y="500" type="line"/>
      <point x="201.0" y="500" type="line"/>
      <point x="201.0" y="587" type="line" smooth="yes"/>
      <point x="201.0" y="641"/>
      <point x="226.0" y="663"/>
      <point x="274.0" y="663" type="curve" smooth="yes"/>
      <point x="309.0" y="663" type="line"/>
      <point x="309.0" y="673" type="line"/>
      <point x="274.0" y="673" type="line" smooth="yes"/>
      <point x="220.0" y="673"/>
      <point x="191.0" y="648"/>
      <point x="191.0" y="587" type="curve" smooth="yes"/>
    </contour>
  </outline>
</glyph>
<glyph name="breve" format="1">
  <advance width="500"/>
  <unicode hex="02D8"/>
  <outline>
    <contour>
      <point x="384.0" y="907" type="line"/>
      <point x="384.0" y="898" type="line" smooth="yes"/>
      <point x="384.0" y="862"/>
      <point x="357.0" y="828"/>
      <point x="249.0" y="828" type="curve" smooth="yes"/>
      <point x="141.0" y="828"/>
      <point x="119.0" y="862"/>
      <point x="119.0" y="898" type="curve" smooth="yes"/>
      <point x="119.0" y="907" type="line"/>
      <point x="109.0" y="907" type="line"/>
      <point x="109.0" y="898" type="line" smooth="yes"/>
      <point x="109.0" y="860"/>
      <point x="125.0" y="818"/>
      <point x="249.0" y="818" type="curve" smooth="yes"/>
      <point x="373.0" y="818"/>
      <point x="394.0" y="860"/>
      <point x="394.0" y="898" type="curve" smooth="yes"/>
      <point x="394.0" y="907" type="line"/>
    </contour>
    <contour>
      <point x="250.0" y="747.0" type="move" name="_top"/>
    </contour>
    <contour>
      <point x="250.0" y="0.0" type="move" name="_bottom"/>
    </contour>
  </outline>
</glyph>
<glyph name="ogonek" format="1">
  <advance width="500"/>
  <unicode hex="02DB"/>
  <outline>
    <contour>
      <point x="288.0" y="-116" type="line"/>
      <point x="288.0" y="-106" type="line"/>
      <point x="264.0" y="-106" type="line" smooth="yes"/>
      <point x="223.0" y="-106"/>
      <point x="218.0" y="-83"/>
      <point x="223.0" y="-43" type="curve" smooth="yes"/>
      <point x="235.0" y="42" type="line" smooth="yes"/>
      <point x="239.0" y="71"/>
      <point x="243.0" y="76"/>
      <point x="268.0" y="90" type="curve"/>
      <point x="262.0" y="98" type="line"/>
      <point x="234.0" y="82"/>
      <point x="230.0" y="74"/>
      <point x="225.0" y="42" type="curve" smooth="yes"/>
      <point x="213.0" y="-41" type="line" smooth="yes"/>
      <point x="205.0" y="-91"/>
      <point x="215.0" y="-116"/>
      <point x="264.0" y="-116" type="curve" smooth="yes"/>
    </contour>
    <contour>
      <point x="250.0" y="747.0" type="move" name="_top"/>
    </contour>
    <contour>
      <point x="250.0" y="0.0" type="move" name="_bottom"/>
    </contour>
  </outline>
</glyph>
<glyph name="tilde" format="1">
  <advance width="500"/>
  <unicode hex="02DC"/>
  <outline>
    <contour>
      <point x="368.0" y="841" type="line"/>
      <point x="341.0" y="838"/>
      <point x="317.0" y="841"/>
      <point x="266.0" y="849" type="curve" smooth="yes"/>
      <point x="250.0" y="851" type="line"/>
      <point x="222.0" y="855" type="line" smooth="yes"/>
      <point x="177.0" y="861"/>
      <point x="153.0" y="863"/>
      <point x="130.0" y="860" type="curve"/>
      <point x="130.0" y="849" type="line"/>
      <point x="152.0" y="853"/>
      <point x="176.0" y="852"/>
      <point x="220.0" y="845" type="curve" smooth="yes"/>
      <point x="248.0" y="841" type="line"/>
      <point x="264.0" y="839" type="line" smooth="yes"/>
      <point x="315.0" y="831"/>
      <point x="341.0" y="828"/>
      <point x="368.0" y="831" type="curve"/>
    </contour>
    <contour>
      <point x="250.0" y="747.0" type="move" name="_top"/>
    </contour>
    <contour>
      <point x="250.0" y="0.0" type="move" name="_bottom"/>
    </contour>
  </outline>
</glyph>
<glyph name="quotedblleft" format="1">
  <advance width="684"/>
  <unicode hex="201C"/>
  <outline>
    <contour>
      <point x="115.0" y="450" type="line"/>
      <point x="249.0" y="450" type="line"/>
      <point x="249.0" y="460" type="line"/>
      <point x="125.0" y="460" type="line"/>
      <point x="125.0" y="569" type="line" smooth="yes"/>
      <point x="125.0" y="623"/>
      <point x="155.0" y="650"/>
      <point x="203.0" y="650" type="curve" smooth="yes"/>
      <point x="249.0" y="650" type="line"/>
      <point x="249.0" y="660" type="line"/>
      <point x="203.0" y="660" type="line" smooth="yes"/>
      <point x="149.0" y="660"/>
      <point x="115.0" y="630"/>
      <point x="115.0" y="569" type="curve" smooth="yes"/>
    </contour>
    <contour>
      <point x="435.0" y="450" type="line"/>
      <point x="569.0" y="450" type="line"/>
      <point x="569.0" y="460" type="line"/>
      <point x="445.0" y="460" type="line"/>
      <point x="445.0" y="569" type="line" smooth="yes"/>
      <point x="445.0" y="623"/>
      <point x="475.0" y="650"/>
      <point x="523.0" y="650" type="curve" smooth="yes"/>
      <point x="569.0" y="650" type="line"/>
      <point x="569.0" y="660" type="line"/>
      <point x="523.0" y="660" type="line" smooth="yes"/>
      <point x="469.0" y="660"/>
      <point x="435.0" y="630"/>
      <point x="435.0" y="569" type="curve" smooth="yes"/>
    </contour>
  </outline>
</glyph>
<glyph name="perthousand" format="1">
  <advance width="1417"/>
  <unicode hex="2030"/>
  <outline>
    <contour>
      <point x="331.0" y="583" type="line" smooth="yes"/>
      <point x="331.0" y="641"/>
      <point x="300.0" y="663"/>
      <point x="221.0" y="663" type="curve" smooth="yes"/>
      <point x="143.0" y="663"/>
      <point x="110.0" y="641"/>
      <point x="110.0" y="583" type="curve" smooth="yes"/>
      <point x="110.0" y="437" type="line" smooth="yes"/>
      <point x="110.0" y="379"/>
      <point x="143.0" y="358"/>
      <point x="221.0" y="358" type="curve" smooth="yes"/>
      <point x="300.0" y="358"/>
      <point x="331.0" y="379"/>
      <point x="331.0" y="437" type="curve" smooth="yes"/>
    </contour>
    <contour>
      <point x="221.0" y="368" type="curve" smooth="yes"/>
      <point x="153.0" y="368"/>
      <point x="120.0" y="385"/>
      <point x="120.0" y="437" type="curve" smooth="yes"/>
      <point x="120.0" y="583" type="line" smooth="yes"/>
      <point x="120.0" y="635"/>
      <point x="153.0" y="653"/>
      <point x="221.0" y="653" type="curve" smooth="yes"/>
      <point x="290.0" y="653"/>
      <point x="321.0" y="635"/>
      <point x="321.0" y="583" type="curve" smooth="yes"/>
      <point x="321.0" y="437" type="line" smooth="yes"/>
      <point x="321.0" y="385"/>
      <point x="290.0" y="368"/>
    </contour>
    <contour>
      <point x="459.0" y="90" type="line"/>
      <point x="592.0" y="630" type="line"/>
      <point x="582.0" y="630" type="line"/>
      <point x="449.0" y="90" type="line"/>
    </contour>
    <contour>
      <point x="929.0" y="280" type="line" smooth="yes"/>
      <point x="929.0" y="338"/>
      <point x="898.0" y="360"/>
      <point x="819.0" y="360" type="curve" smooth="yes"/>
      <point x="741.0" y="360"/>
      <point x="708.0" y="338"/>
      <point x="708.0" y="280" type="curve" smooth="yes"/>
      <point x="708.0" y="134" type="line" smooth="yes"/>
      <point x="708.0" y="76"/>
      <point x="741.0" y="55"/>
      <point x="819.0" y="55" type="curve" smooth="yes"/>
      <point x="898.0" y="55"/>
      <point x="929.0" y="76"/>
      <point x="929.0" y="134" type="curve" smooth="yes"/>
    </contour>
    <contour>
      <point x="1326.0" y="280" type="line" smooth="yes"/>
      <point x="1326.0" y="338"/>
      <point x="1295.0" y="360"/>
      <point x="1216.0" y="360" type="curve" smooth="yes"/>
      <point x="1138.0" y="360"/>
      <point x="1105.0" y="338"/>
      <point x="1105.0" y="280" type="curve" smooth="yes"/>
      <point x="1105.0" y="134" type="line" smooth="yes"/>
      <point x="1105.0" y="76"/>
      <point x="1138.0" y="55"/>
      <point x="1216.0" y="55" type="curve" smooth="yes"/>
      <point x="1295.0" y="55"/>
      <point x="1326.0" y="76"/>
      <point x="1326.0" y="134" type="curve" smooth="yes"/>
    </contour>
    <contour>
      <point x="819.0" y="65" type="curve" smooth="yes"/>
      <point x="751.0" y="65"/>
      <point x="718.0" y="82"/>
      <point x="718.0" y="134" type="curve" smooth="yes"/>
      <point x="718.0" y="280" type="line" smooth="yes"/>
      <point x="718.0" y="332"/>
      <point x="751.0" y="350"/>
      <point x="819.0" y="350" type="curve" smooth="yes"/>
      <point x="888.0" y="350"/>
      <point x="919.0" y="332"/>
      <point x="919.0" y="280" type="curve" smooth="yes"/>
      <point x="919.0" y="134" type="line" smooth="yes"/>
      <point x="919.0" y="82"/>
      <point x="888.0" y="65"/>
    </contour>
    <contour>
      <point x="1216.0" y="65" type="curve" smooth="yes"/>
      <point x="1148.0" y="65"/>
      <point x="1115.0" y="82"/>
      <point x="1115.0" y="134" type="curve" smooth="yes"/>
      <point x="1115.0" y="280" type="line" smooth="yes"/>
      <point x="1115.0" y="332"/>
      <point x="1148.0" y="350"/>
      <point x="1216.0" y="350" type="curve" smooth="yes"/>
      <point x="1285.0" y="350"/>
      <point x="1316.0" y="332"/>
      <point x="1316.0" y="280" type="curve" smooth="yes"/>
      <point x="1316.0" y="134" type="line" smooth="yes"/>
      <point x="1316.0" y="82"/>
      <point x="1285.0" y="65"/>
    </contour>
  </outline>
</glyph>
<glyph name="nine.sups" format="1">
  <advance width="528"/>
  <unicode hex="2079"/>
  <outline>
    <contour>
      <point x="164.0" y="267" type="line"/>
      <point x="294.0" y="267" type="line" smooth="yes"/>
      <point x="357.0" y="267"/>
      <point x="393.0" y="285"/>
      <point x="393.0" y="351" type="curve" smooth="yes"/>
      <point x="393.0" y="588" type="line" smooth="yes"/>
      <point x="393.0" y="661"/>
      <point x="333.0" y="671"/>
      <point x="255.0" y="671" type="curve" smooth="yes"/>
      <point x="180.0" y="671"/>
      <point x="125.0" y="659"/>
      <point x="125.0" y="588" type="curve" smooth="yes"/>
      <point x="125.0" y="523" type="line" smooth="yes"/>
      <point x="125.0" y="449"/>
      <point x="180.0" y="445"/>
      <point x="253.0" y="445" type="curve" smooth="yes"/>
      <point x="313.0" y="445"/>
      <point x="366.0" y="453"/>
      <point x="385.0" y="487" type="curve"/>
      <point x="385.0" y="351" type="line" smooth="yes"/>
      <point x="385.0" y="291"/>
      <point x="351.0" y="275"/>
      <point x="294.0" y="275" type="curve" smooth="yes"/>
      <point x="164.0" y="275" type="line"/>
    </contour>
    <contour>
      <point x="253.0" y="453" type="curve" smooth="yes"/>
      <point x="188.0" y="453"/>
      <point x="133.0" y="453"/>
      <point x="133.0" y="523" type="curve" smooth="yes"/>
      <point x="133.0" y="588" type="line" smooth="yes"/>
      <point x="133.0" y="655"/>
      <point x="188.0" y="663"/>
      <point x="255.0" y="663" type="curve" smooth="yes"/>
      <point x="325.0" y="663"/>
      <point x="385.0" y="657"/>
      <point x="385.0" y="588" type="curve" smooth="yes"/>
      <point x="385.0" y="517" type="line"/>
      <point x="385.0" y="461"/>
      <point x="317.0" y="453"/>
    </contour>
  </outline>
</glyph>
<glyph name="lira" format="1">
  <advance width="695"/>
  <unicode hex="20A4"/>
  <outline>
    <contour>
      <point x="546.0" y="237" type="line"/>
      <point x="536.0" y="237" type="line"/>
      <point x="536.0" y="100" type="line"/>
      <point x="188.0" y="100" type="line"/>
      <point x="188.0" y="279" type="line"/>
      <point x="290.0" y="279" type="line"/>
      <point x="290.0" y="289" type="line"/>
      <point x="188.0" y="289" type="line"/>
      <point x="188.0" y="419" type="line"/>
      <point x="290.0" y="419" type="line"/>
      <point x="290.0" y="429" type="line"/>
      <point x="188.0" y="429" type="line"/>
      <point x="188.0" y="516" type="line" smooth="yes"/>
      <point x="188.0" y="597"/>
      <point x="237.0" y="620"/>
      <point x="315.0" y="620" type="curve" smooth="yes"/>
      <point x="451.0" y="620" type="line"/>
      <point x="451.0" y="630" type="line"/>
      <point x="315.0" y="630" type="line" smooth="yes"/>
      <point x="229.0" y="630"/>
      <point x="178.0" y="603"/>
      <point x="178.0" y="516" type="curve" smooth="yes"/>
      <point x="178.0" y="429" type="line"/>
      <point x="110.0" y="429" type="line"/>
      <point x="110.0" y="419" type="line"/>
      <point x="178.0" y="419" type="line"/>
      <point x="178.0" y="289" type="line"/>
      <point x="110.0" y="289" type="line"/>
      <point x="110.0" y="279" type="line"/>
      <point x="178.0" y="279" type="line"/>
      <point x="178.0" y="90" type="line"/>
      <point x="546.0" y="90" type="line"/>
    </contour>
  </outline>
</glyph>
<glyph name="Euro" format="1">
  <advance width="648"/>
  <unicode hex="20AC"/>
  <outline>
    <contour>
      <point x="342.0" y="90" type="curve" smooth="yes"/>
      <point x="514.0" y="90" type="line"/>
      <point x="514.0" y="100" type="line"/>
      <point x="342.0" y="100" type="line" smooth="yes"/>
      <point x="222.0" y="100"/>
      <point x="192.0" y="132"/>
      <point x="192.0" y="219" type="curve" smooth="yes"/>
      <point x="192.0" y="273" type="line"/>
      <point x="430.0" y="273" type="line"/>
      <point x="430.0" y="283" type="line"/>
      <point x="192.0" y="283" type="line"/>
      <point x="192.0" y="433" type="line"/>
      <point x="430.0" y="433" type="line"/>
      <point x="430.0" y="443" type="line"/>
      <point x="192.0" y="443" type="line"/>
      <point x="192.0" y="499" type="line" smooth="yes"/>
      <point x="192.0" y="588"/>
      <point x="224.0" y="620"/>
      <point x="342.0" y="620" type="curve" smooth="yes"/>
      <point x="514.0" y="620" type="line"/>
      <point x="514.0" y="630" type="line"/>
      <point x="342.0" y="630" type="line" smooth="yes"/>
      <point x="214.0" y="630"/>
      <point x="182.0" y="594"/>
      <point x="182.0" y="499" type="curve" smooth="yes"/>
      <point x="182.0" y="443" type="line"/>
      <point x="110.0" y="443" type="line"/>
      <point x="110.0" y="433" type="line"/>
      <point x="182.0" y="433" type="line"/>
      <point x="182.0" y="283" type="line"/>
      <point x="110.0" y="283" type="line"/>
      <point x="110.0" y="273" type="line"/>
      <point x="182.0" y="273" type="line"/>
      <point x="182.0" y="219" type="line" smooth="yes"/>
      <point x="182.0" y="126"/>
      <point x="212.0" y="90"/>
    </contour>
  </outline>
</glyph>
<glyph name="Omega" format="1">
  <advance width="777"/>
  <unicode hex="2126"/>
  <outline>
    <contour>
      <point x="581.0" y="263" type="line" smooth="yes"/>
      <point x="581.0" y="192"/>
      <point x="573.0" y="159"/>
      <point x="505.0" y="138" type="curve" smooth="yes"/>
      <point x="501.0" y="137" type="line"/>
      <point x="501.0" y="90" type="line"/>
      <point x="652.0" y="90" type="line"/>
      <point x="652.0" y="100" type="line"/>
      <point x="511.0" y="100" type="line"/>
      <point x="511.0" y="129" type="line"/>
      <point x="581.0" y="151"/>
      <point x="591.0" y="186"/>
      <point x="591.0" y="263" type="curve" smooth="yes"/>
      <point x="591.0" y="507" type="line" smooth="yes"/>
      <point x="591.0" y="588"/>
      <point x="546.0" y="642"/>
      <point x="389.0" y="642" type="curve" smooth="yes"/>
      <point x="232.0" y="642"/>
      <point x="187.0" y="588"/>
      <point x="187.0" y="507" type="curve" smooth="yes"/>
      <point x="187.0" y="263" type="line" smooth="yes"/>
      <point x="187.0" y="187"/>
      <point x="197.0" y="152"/>
      <point x="267.0" y="129" type="curve"/>
      <point x="267.0" y="100" type="line"/>
      <point x="126.0" y="100" type="line"/>
      <point x="126.0" y="90" type="line"/>
      <point x="277.0" y="90" type="line"/>
      <point x="277.0" y="137" type="line"/>
      <point x="273.0" y="138" type="line" smooth="yes"/>
      <point x="205.0" y="159"/>
      <point x="197.0" y="192"/>
      <point x="197.0" y="263" type="curve" smooth="yes"/>
      <point x="197.0" y="507" type="line" smooth="yes"/>
      <point x="197.0" y="582"/>
      <point x="240.0" y="632"/>
      <point x="389.0" y="632" type="curve" smooth="yes"/>
      <point x="538.0" y="632"/>
      <point x="581.0" y="582"/>
      <point x="581.0" y="507" type="curve" smooth="yes"/>
    </contour>
  </outline>
</glyph>
<glyph name="arrowright" format="1">
  <advance width="1000"/>
  <unicode hex="2192"/>
  <outline>
    <contour>
      <point x="501.0" y="239" type="line"/>
      <point x="501.0" y="478" type="line"/>
      <point x="677.0" y="359" type="line"/>
    </contour>
    <contour>
      <point x="491.0" y="221" type="line"/>
      <point x="695.0" y="359" type="line"/>
      <point x="491.0" y="496" type="line"/>
      <point x="491.0" y="364" type="line"/>
      <point x="275.0" y="364" type="line"/>
      <point x="275.0" y="354" type="line"/>
      <point x="491.0" y="354" type="line"/>
    </contour>
  </outline>
</glyph>
<glyph name="arrowdown" format="1">
  <advance width="1000"/>
  <unicode hex="2193"/>
  <outline>
    <contour>
      <point x="501.0" y="171" type="line"/>
      <point x="638.0" y="375" type="line"/>
      <point x="506.0" y="375" type="line"/>
      <point x="506.0" y="591" type="line"/>
      <point x="496.0" y="591" type="line"/>
      <point x="496.0" y="375" type="line"/>
      <point x="363.0" y="375" type="line"/>
    </contour>
    <contour>
      <point x="620.0" y="365" type="line"/>
      <point x="501.0" y="189" type="line"/>
      <point x="381.0" y="365" type="line"/>
    </contour>
  </outline>
</glyph>
<glyph name="Delta" format="1">
  <advance width="730"/>
  <unicode hex="2206"/>
  <outline>
    <contour>
      <point x="162.0" y="90" type="line"/>
      <point x="564.0" y="90" type="line"/>
      <point x="564.0" y="193" type="line" smooth="yes"/>
      <point x="564.0" y="231"/>
      <point x="559.0" y="264"/>
      <point x="554.0" y="285" type="curve" smooth="yes"/>
      <point x="491.0" y="535" type="line" smooth="yes"/>
      <point x="469.0" y="624"/>
      <point x="449.0" y="625"/>
      <point x="387.0" y="625" type="curve" smooth="yes"/>
      <point x="336.0" y="625" type="line" smooth="yes"/>
      <point x="274.0" y="625"/>
      <point x="253.0" y="624"/>
      <point x="232.0" y="535" type="curve" smooth="yes"/>
      <point x="173.0" y="288" type="line" smooth="yes"/>
      <point x="167.0" y="264"/>
      <point x="162.0" y="231"/>
      <point x="162.0" y="193" type="curve" smooth="yes"/>
    </contour>
    <contour>
      <point x="172.0" y="193" type="line" smooth="yes"/>
      <point x="172.0" y="231"/>
      <point x="177.0" y="262"/>
      <point x="183.0" y="286" type="curve" smooth="yes"/>
      <point x="242.0" y="533" type="line" smooth="yes"/>
      <point x="261.0" y="614"/>
      <point x="280.0" y="615"/>
      <point x="336.0" y="615" type="curve" smooth="yes"/>
      <point x="387.0" y="615" type="line" smooth="yes"/>
      <point x="443.0" y="615"/>
      <point x="461.0" y="614"/>
      <point x="481.0" y="533" type="curve" smooth="yes"/>
      <point x="544.0" y="283" type="line" smooth="yes"/>
      <point x="549.0" y="262"/>
      <point x="554.0" y="231"/>
      <point x="554.0" y="193" type="curve" smooth="yes"/>
      <point x="554.0" y="100" type="line"/>
      <point x="172.0" y="100" type="line"/>
    </contour>
  </outline>
</glyph>
<glyph name="lessequal" format="1">
  <advance width="714"/>
  <unicode hex="2264"/>
  <outline>
    <contour>
      <point x="534" y="246" type="line"/>
      <point x="236" y="332" type="line" smooth="yes"/>
      <point x="208" y="340"/>
      <point x="186" y="355"/>
      <point x="186" y="393" type="curve" smooth="yes"/>
      <point x="186" y="465" type="line" smooth="yes"/>
      <point x="186" y="503"/>
      <point x="208" y="515"/>
      <point x="236" y="523" type="curve" smooth="yes"/>
      <point x="534" y="609" type="line"/>
      <point x="534" y="619" type="line"/>
      <point x="234" y="533" type="line" smooth="yes"/>
      <point x="200" y="523"/>
      <point x="176" y="509"/>
      <point x="176" y="465" type="curve" smooth="yes"/>
      <point x="176" y="393" type="line" smooth="yes"/>
      <point x="176" y="349"/>
      <point x="200" y="332"/>
      <point x="234" y="322" type="curve" smooth="yes"/>
      <point x="534" y="236" type="line"/>
    </contour>
    <contour>
      <point x="176" y="90" type="line"/>
      <point x="534" y="90" type="line"/>
      <point x="534" y="100" type="line"/>
      <point x="176" y="100" type="line"/>
    </contour>
  </outline>
</glyph>
<glyph name="greaterequal" format="1">
  <advance width="714"/>
  <unicode hex="2265"/>
  <outline>
    <contour>
      <point x="480" y="322" type="line" smooth="yes"/>
      <point x="514" y="332"/>
      <point x="538" y="349"/>
      <point x="538" y="393" type="curve" smooth="yes"/>
      <point x="538" y="465" type="line" smooth="yes"/>
      <point x="538" y="509"/>
      <point x="514" y="523"/>
      <point x="480" y="533" type="curve" smooth="yes"/>
      <point x="180" y="619" type="line"/>
      <point x="180" y="609" type="line"/>
      <point x="478" y="523" type="line" smooth="yes"/>
      <point x="506" y="515"/>
      <point x="528" y="503"/>
      <point x="528" y="465" type="curve" smooth="yes"/>
      <point x="528" y="393" type="line" smooth="yes"/>
      <point x="528" y="355"/>
      <point x="506" y="340"/>
      <point x="478" y="332" type="curve" smooth="yes"/>
      <point x="180" y="246" type="line"/>
      <point x="180" y="236" type="line"/>
    </contour>
    <contour>
      <point x="180" y="90" type="line"/>
      <point x="538" y="90" type="line"/>
      <point x="538" y="100" type="line"/>
      <point x="180" y="100" type="line"/>
    </contour>
  </outline>
</glyph>
<glyph name="uni27A1" format="1">
  <advance width="650"/>
  <unicode hex="27A1"/>
  <outline>
    <contour>
      <point x="-40.0" y="870" type="line"/>
      <point x="37.0" y="870" type="line"/>
      <point x="37.0" y="1041" type="line" smooth="yes"/>
      <point x="37.0" y="1062"/>
      <point x="55.0" y="1074"/>
      <point x="74.0" y="1074" type="curve" smooth="yes"/>
      <point x="97.0" y="1074"/>
      <point x="122.0" y="1060"/>
      <point x="143.0" y="1033" type="curve" smooth="yes"/>
      <point x="579.0" y="453" type="line" smooth="yes"/>
      <point x="601.0" y="425"/>
      <point x="611.0" y="393"/>
      <point x="611.0" y="361" type="curve" smooth="yes"/>
      <point x="611.0" y="329"/>
      <point x="601.0" y="297"/>
      <point x="579.0" y="269" type="curve" smooth="yes"/>
      <point x="143.0" y="-311" type="line" smooth="yes"/>
      <point x="123.0" y="-338"/>
      <point x="97.0" y="-352"/>
      <point x="74.0" y="-352" type="curve" smooth="yes"/>
      <point x="55.0" y="-352"/>
      <point x="37.0" y="-340"/>
      <point x="37.0" y="-319" type="curve" smooth="yes"/>
      <point x="37.0" y="-150" type="line"/>
      <point x="-40.0" y="-150" type="line"/>
      <point x="-40.0" y="-160" type="line"/>
      <point x="27.0" y="-160" type="line"/>
      <point x="27.0" y="-319" type="line" smooth="yes"/>
      <point x="27.0" y="-346"/>
      <point x="49.0" y="-362"/>
      <point x="74.0" y="-362" type="curve" smooth="yes"/>
      <point x="99.0" y="-362"/>
      <point x="129.0" y="-348"/>
      <point x="151.0" y="-317" type="curve" smooth="yes"/>
      <point x="587.0" y="263" type="line" smooth="yes"/>
      <point x="611.0" y="293"/>
      <point x="621.0" y="327"/>
      <point x="621.0" y="361" type="curve" smooth="yes"/>
      <point x="621.0" y="395"/>
      <point x="611.0" y="429"/>
      <point x="587.0" y="459" type="curve" smooth="yes"/>
      <point x="151.0" y="1039" type="line" smooth="yes"/>
      <point x="128.0" y="1070"/>
      <point x="99.0" y="1084"/>
      <point x="74.0" y="1084" type="curve" smooth="yes"/>
      <point x="49.0" y="1084"/>
      <point x="27.0" y="1068"/>
      <point x="27.0" y="1041" type="curve" smooth="yes"/>
      <point x="27.0" y="880" type="line"/>
      <point x="-40.0" y="880" type="line"/>
    </contour>
  </outline>
</glyph>
<glyph name="uni2B24" format="1">
  <advance width="1280"/>
  <unicode hex="2B24"/>
  <outline>
    <contour>
      <point x="90.0" y="350" type="curve" smooth="yes"/>
      <point x="90.0" y="27"/>
      <point x="317.0" y="-200"/>
      <point x="640.0" y="-200" type="curve" smooth="yes"/>
      <point x="963.0" y="-200"/>
      <point x="1190.0" y="27"/>
      <point x="1190.0" y="350" type="curve" smooth="yes"/>
      <point x="1190.0" y="673"/>
      <point x="963.0" y="900"/>
      <point x="640.0" y="900" type="curve" smooth="yes"/>
      <point x="317.0" y="900"/>
      <point x="90.0" y="673"/>
    </contour>
    <contour>
      <point x="1180.0" y="350" type="curve" smooth="yes"/>
      <point x="1180.0" y="33"/>
      <point x="957.0" y="-190"/>
      <point x="640.0" y="-190" type="curve" smooth="yes"/>
      <point x="323.0" y="-190"/>
      <point x="100.0" y="33"/>
      <point x="100.0" y="350" type="curve" smooth="yes"/>
      <point x="100.0" y="667"/>
      <point x="323.0" y="890"/>
      <point x="640.0" y="890" type="curve" smooth="yes"/>
      <point x="957.0" y="890"/>
      <point x="1180.0" y="667"/>
    </contour>
  </outline>
</glyph>
<glyph name="Aogonek.salt" format="1">
  <advance width="736"/>
  <unicode hex="E109"/>
  <outline>
    <contour>
      <point x="184" y="507" type="line" smooth="yes"/>
      <point x="184" y="582"/>
      <point x="219" y="632"/>
      <point x="368" y="632" type="curve" smooth="yes"/>
      <point x="517" y="632"/>
      <point x="555" y="582"/>
      <point x="555" y="507" type="curve" smooth="yes"/>
      <point x="555" y="281" type="line"/>
      <point x="184" y="281" type="line"/>
    </contour>
    <contour>
      <point x="582" y="-106" type="line"/>
      <point x="558" y="-106" type="line" smooth="yes"/>
      <point x="517" y="-106"/>
      <point x="512" y="-83"/>
      <point x="517" y="-43" type="curve" smooth="yes"/>
      <point x="529" y="42" type="line" smooth="yes"/>
      <point x="533" y="71"/>
      <point x="537" y="76"/>
      <point x="562" y="90" type="curve"/>
      <point x="565" y="90" type="line"/>
      <point x="565" y="507" type="line" smooth="yes"/>
      <point x="565" y="588"/>
      <point x="525" y="642"/>
      <point x="368" y="642" type="curve" smooth="yes"/>
      <point x="211" y="642"/>
      <point x="174" y="588"/>
      <point x="174" y="507" type="curve" smooth="yes"/>
      <point x="174" y="90" type="line"/>
      <point x="184" y="90" type="line"/>
      <point x="184" y="271" type="line"/>
      <point x="555" y="271" type="line"/>
      <point x="555" y="97" type="line"/>
      <point x="528" y="82"/>
      <point x="524" y="74"/>
      <point x="519" y="42" type="curve" smooth="yes"/>
      <point x="507" y="-41" type="line" smooth="yes"/>
      <point x="499" y="-91"/>
      <point x="509" y="-116"/>
      <point x="558" y="-116" type="curve" smooth="yes"/>
      <point x="582" y="-116" type="line"/>
    </contour>
  </outline>
</glyph>
<glyph name="Iogonek.salt" format="1">
  <advance width="371.0"/>
  <unicode hex="E11C"/>
  <outline>
    <contour>
      <point x="207" y="-106" type="line"/>
      <point x="183" y="-106" type="line" smooth="yes"/>
      <point x="142" y="-106"/>
      <point x="137" y="-83"/>
      <point x="142" y="-43" type="curve" smooth="yes"/>
      <point x="154" y="42" type="line" smooth="yes"/>
      <point x="158" y="71"/>
      <point x="162" y="76"/>
      <point x="187" y="90" type="curve"/>
      <point x="191" y="90" type="line"/>
      <point x="191" y="630" type="line"/>
      <point x="181" y="630" type="line"/>
      <point x="181" y="98" type="line"/>
      <point x="153" y="82"/>
      <point x="149" y="74"/>
      <point x="144" y="42" type="curve" smooth="yes"/>
      <point x="132" y="-41" type="line" smooth="yes"/>
      <point x="124" y="-91"/>
      <point x="134" y="-116"/>
      <point x="183" y="-116" type="curve" smooth="yes"/>
      <point x="207" y="-116" type="line"/>
    </contour>
  </outline>
</glyph>
<glyph name="M.salt" format="1">
  <advance width="1070"/>
  <unicode hex="E124"/>
  <outline>
    <contour>
      <point x="181" y="507" type="line" smooth="yes"/>
      <point x="181" y="582.0"/>
      <point x="221.147058824" y="632.0"/>
      <point x="356" y="632" type="curve" smooth="yes"/>
      <point x="491.117318436" y="632.0"/>
      <point x="530.0" y="582.0"/>
      <point x="530.0" y="507" type="curve" smooth="yes"/>
      <point x="530.0" y="90" type="line"/>
      <point x="540.0" y="90" type="line"/>
      <point x="540.0" y="507" type="line" smooth="yes"/>
      <point x="540.0" y="582.0"/>
      <point x="579.861111111" y="632.0"/>
      <point x="715" y="632" type="curve" smooth="yes"/>
      <point x="849.875739645" y="632.0"/>
      <point x="889" y="582.0"/>
      <point x="889" y="507" type="curve" smooth="yes"/>
      <point x="889" y="90" type="line"/>
      <point x="899" y="90" type="line"/>
      <point x="899" y="507" type="line" smooth="yes"/>
      <point x="899" y="588.0"/>
      <point x="857.882681564" y="642.0"/>
      <point x="715" y="642" type="curve" smooth="yes"/>
      <point x="596.297297297" y="642.0"/>
      <point x="548.980089194" y="604.916090177"/>
      <point x="535.0" y="546" type="curve"/>
      <point x="522.016144252" y="604.926729933"/>
      <point x="474.684782609" y="642.0"/>
      <point x="356" y="642" type="curve" smooth="yes"/>
      <point x="213.138888889" y="642.0"/>
      <point x="171" y="588.0"/>
      <point x="171" y="507" type="curve" smooth="yes"/>
      <point x="171" y="90" type="line"/>
      <point x="181" y="90" type="line"/>
    </contour>
    <contour>
      <point x="535.0" y="747.0" type="move" name="top"/>
    </contour>
    <contour>
      <point x="535.0" y="0.0" type="move" name="bottom"/>
    </contour>
  </outline>
</glyph>
<glyph name="N.salt" format="1">
  <advance width="746"/>
  <unicode hex="E125"/>
  <outline>
    <contour>
      <point x="572.0" y="90" type="line"/>
      <point x="572.0" y="507" type="line" smooth="yes"/>
      <point x="572.0" y="588"/>
      <point x="529.0" y="642"/>
      <point x="372.0" y="642" type="curve" smooth="yes"/>
      <point x="215.0" y="642"/>
      <point x="171.0" y="588"/>
      <point x="171.0" y="507" type="curve" smooth="yes"/>
      <point x="171.0" y="90" type="line"/>
      <point x="181.0" y="90" type="line"/>
      <point x="181.0" y="507" type="line" smooth="yes"/>
      <point x="181.0" y="582"/>
      <point x="223.0" y="632"/>
      <point x="372.0" y="632" type="curve" smooth="yes"/>
      <point x="521.0" y="632"/>
      <point x="562.0" y="582"/>
      <point x="562.0" y="507" type="curve" smooth="yes"/>
      <point x="562.0" y="90" type="line"/>
    </contour>
    <contour>
      <point x="373.0" y="747.0" type="move" name="top"/>
    </contour>
    <contour>
      <point x="373.0" y="0.0" type="move" name="bottom"/>
    </contour>
  </outline>
</glyph>
<glyph name="uni25D7.v_wings" format="1">
  <advance width="1280.0"/>
  <unicode hex="E180"/>
  <outline>
    <contour>
      <point x="1150" y="820" type="line"/>
      <point x="1150" y="777" type="line" smooth="yes"/>
      <point x="1150" y="661"/>
      <point x="1210" y="594"/>
      <point x="1334" y="594" type="curve" smooth="yes"/>
      <point x="1338" y="594"/>
      <point x="1340" y="592"/>
      <point x="1340" y="588" type="curve" smooth="yes"/>
      <point x="1340" y="112" type="line" smooth="yes"/>
      <point x="1340" y="108"/>
      <point x="1338" y="106"/>
      <point x="1334" y="106" type="curve" smooth="yes"/>
      <point x="1150" y="106" type="line"/>
      <point x="1150" y="-64" type="line" smooth="yes"/>
      <point x="1150" y="-68"/>
      <point x="1148" y="-70"/>
      <point x="1144" y="-70" type="curve" smooth="yes"/>
      <point x="136" y="-70" type="line" smooth="yes"/>
      <point x="132" y="-70"/>
      <point x="130" y="-68"/>
      <point x="130" y="-64" type="curve" smooth="yes"/>
      <point x="130" y="106" type="line"/>
      <point x="-54" y="106" type="line" smooth="yes"/>
      <point x="-58" y="106"/>
      <point x="-60" y="108"/>
      <point x="-60" y="112" type="curve" smooth="yes"/>
      <point x="-60" y="588" type="line" smooth="yes"/>
      <point x="-60" y="592"/>
      <point x="-58" y="594"/>
      <point x="-54" y="594" type="curve" smooth="yes"/>
      <point x="70" y="594"/>
      <point x="130" y="664"/>
      <point x="130" y="784" type="curve" smooth="yes"/>
      <point x="130" y="820" type="line"/>
      <point x="120" y="820" type="line"/>
      <point x="120" y="784" type="line" smooth="yes"/>
      <point x="120" y="670"/>
      <point x="64" y="604"/>
      <point x="-54" y="604" type="curve" smooth="yes"/>
      <point x="-66" y="604"/>
      <point x="-70" y="600"/>
      <point x="-70" y="588" type="curve" smooth="yes"/>
      <point x="-70" y="112" type="line" smooth="yes"/>
      <point x="-70" y="100"/>
      <point x="-66" y="96"/>
      <point x="-54" y="96" type="curve" smooth="yes"/>
      <point x="120" y="96" type="line"/>
      <point x="120" y="-64" type="line" smooth="yes"/>
      <point x="120" y="-76"/>
      <point x="124" y="-80"/>
      <point x="136" y="-80" type="curve" smooth="yes"/>
      <point x="1144" y="-80" type="line" smooth="yes"/>
      <point x="1156" y="-80"/>
      <point x="1160" y="-76"/>
      <point x="1160" y="-64" type="curve" smooth="yes"/>
      <point x="1160" y="96" type="line"/>
      <point x="1334" y="96" type="line" smooth="yes"/>
      <point x="1346" y="96"/>
      <point x="1350" y="100"/>
      <point x="1350" y="112" type="curve" smooth="yes"/>
      <point x="1350" y="588" type="line" smooth="yes"/>
      <point x="1350" y="600"/>
      <point x="1346" y="604"/>
      <point x="1334" y="604" type="curve" smooth="yes"/>
      <point x="1216" y="604"/>
      <point x="1160" y="667"/>
      <point x="1160" y="777" type="curve" smooth="yes"/>
      <point x="1160" y="820" type="line"/>
    </contour>
  </outline>
</glyph>
<glyph name="Scedilla.v" format="1">
  <advance width="1000"/>
  <unicode hex="E1C6"/>
  <outline>
    <contour>
      <point x="581" y="130" type="line" smooth="yes"/>
      <point x="649" y="130"/>
      <point x="692" y="165"/>
      <point x="692" y="221" type="curve" smooth="yes"/>
      <point x="692" y="284" type="line" smooth="yes"/>
      <point x="692" y="338"/>
      <point x="663" y="369"/>
      <point x="603" y="375" type="curve" smooth="yes"/>
      <point x="390" y="396" type="line" smooth="yes"/>
      <point x="346" y="400"/>
      <point x="319" y="427"/>
      <point x="319" y="467" type="curve" smooth="yes"/>
      <point x="319" y="539" type="line" smooth="yes"/>
      <point x="319" y="589"/>
      <point x="354" y="620"/>
      <point x="411" y="620" type="curve" smooth="yes"/>
      <point x="685" y="620" type="line"/>
      <point x="685" y="630" type="line"/>
      <point x="411" y="630" type="line" smooth="yes"/>
      <point x="348" y="630"/>
      <point x="309" y="595"/>
      <point x="309" y="539" type="curve" smooth="yes"/>
      <point x="309" y="467" type="line" smooth="yes"/>
      <point x="309" y="422"/>
      <point x="339" y="391"/>
      <point x="388" y="386" type="curve" smooth="yes"/>
      <point x="601" y="365" type="line" smooth="yes"/>
      <point x="656" y="360"/>
      <point x="682" y="332"/>
      <point x="682" y="284" type="curve" smooth="yes"/>
      <point x="682" y="221" type="line" smooth="yes"/>
      <point x="682" y="171"/>
      <point x="643" y="140"/>
      <point x="581" y="140" type="curve" smooth="yes"/>
      <point x="290" y="140" type="line"/>
      <point x="290" y="130" type="line"/>
      <point x="503" y="130" type="line"/>
      <point x="458" y="4" type="line"/>
      <point x="468" y="4" type="line"/>
      <point x="514" y="130" type="line"/>
    </contour>
  </outline>
</glyph>
<glyph name="Tcommaaccent.v" format="1">
  <advance width="1000"/>
  <unicode hex="E1C9"/>
  <outline>
    <contour>
      <point x="495" y="210" type="line"/>
      <point x="505" y="210" type="line"/>
      <point x="505" y="620" type="line"/>
      <point x="710" y="620" type="line"/>
      <point x="710" y="630" type="line"/>
      <point x="290" y="630" type="line"/>
      <point x="290" y="620" type="line"/>
      <point x="495" y="620" type="line"/>
    </contour>
    <contour>
      <point x="434" y="16" type="line"/>
      <point x="434" y="6" type="line"/>
      <point x="556" y="6" type="line"/>
      <point x="556" y="-71" type="line" smooth="yes"/>
      <point x="556" y="-118"/>
      <point x="530" y="-142"/>
      <point x="488" y="-142" type="curve" smooth="yes"/>
      <point x="434" y="-142" type="line"/>
      <point x="434" y="-152" type="line"/>
      <point x="488" y="-152" type="line" smooth="yes"/>
      <point x="536" y="-152"/>
      <point x="566" y="-125"/>
      <point x="566" y="-71" type="curve" smooth="yes"/>
      <point x="566" y="16" type="line"/>
    </contour>
  </outline>
</glyph>
<glyph name="Uogonek.v" format="1">
  <advance width="1000"/>
  <unicode hex="E1D4"/>
  <outline>
    <contour>
      <point x="550" y="-87" type="line"/>
      <point x="550" y="-77" type="line"/>
      <point x="526" y="-77" type="line" smooth="yes"/>
      <point x="485" y="-77"/>
      <point x="480" y="-54"/>
      <point x="485" y="-14" type="curve" smooth="yes"/>
      <point x="497" y="71" type="line" smooth="yes"/>
      <point x="501" y="100"/>
      <point x="505" y="105"/>
      <point x="530" y="119" type="curve"/>
      <point x="656" y="126"/>
      <point x="693" y="178"/>
      <point x="693" y="253" type="curve" smooth="yes"/>
      <point x="693" y="630" type="line"/>
      <point x="683" y="630" type="line"/>
      <point x="683" y="253" type="line" smooth="yes"/>
      <point x="683" y="178"/>
      <point x="642" y="128"/>
      <point x="497" y="128" type="curve" smooth="yes"/>
      <point x="358" y="128"/>
      <point x="320" y="178"/>
      <point x="320" y="253" type="curve" smooth="yes"/>
      <point x="320" y="630" type="line"/>
      <point x="310" y="630" type="line"/>
      <point x="310" y="253" type="line" smooth="yes"/>
      <point x="310" y="172"/>
      <point x="350" y="118"/>
      <point x="497" y="118" type="curve" smooth="yes"/>
      <point x="501" y="118"/>
      <point x="506" y="118"/>
      <point x="510" y="118" type="curve"/>
      <point x="494" y="107"/>
      <point x="491" y="97"/>
      <point x="487" y="71" type="curve" smooth="yes"/>
      <point x="475" y="-12" type="line" smooth="yes"/>
      <point x="467" y="-62"/>
      <point x="477" y="-87"/>
      <point x="526" y="-87" type="curve" smooth="yes"/>
    </contour>
  </outline>
</glyph>
<glyph name="E.salt_v" format="1">
  <advance width="1000"/>
  <unicode hex="E1F7"/>
  <outline>
    <contour>
      <point x="465.0" y="90" type="curve" smooth="yes"/>
      <point x="701.0" y="90" type="line"/>
      <point x="701.0" y="100" type="line"/>
      <point x="465.0" y="100" type="line" smooth="yes"/>
      <point x="345.0" y="100"/>
      <point x="315.0" y="132"/>
      <point x="315.0" y="219" type="curve" smooth="yes"/>
      <point x="315.0" y="359" type="line"/>
      <point x="620.0" y="359" type="line"/>
      <point x="620.0" y="369" type="line"/>
      <point x="315.0" y="369" type="line"/>
      <point x="315.0" y="499" type="line" smooth="yes"/>
      <point x="315.0" y="588"/>
      <point x="347.0" y="620"/>
      <point x="465.0" y="620" type="curve" smooth="yes"/>
      <point x="701.0" y="620" type="line"/>
      <point x="701.0" y="630" type="line"/>
      <point x="465.0" y="630" type="line" smooth="yes"/>
      <point x="337.0" y="630"/>
      <point x="305.0" y="594"/>
      <point x="305.0" y="499" type="curve" smooth="yes"/>
      <point x="305.0" y="219" type="line" smooth="yes"/>
      <point x="305.0" y="126"/>
      <point x="335.0" y="90"/>
    </contour>
  </outline>
</glyph>
<glyph name="L.salt_v" format="1">
  <advance width="1000"/>
  <unicode hex="E20C"/>
  <outline>
    <contour>
      <point x="310" y="630" type="line"/>
      <point x="320" y="630" type="line"/>
      <point x="320" y="95" type="line"/>
      <point x="315" y="100" type="line"/>
      <point x="701" y="100" type="line"/>
      <point x="701" y="90" type="line"/>
      <point x="310" y="90" type="line"/>
    </contour>
  </outline>
</glyph>
<glyph name="Lslash.salt_v" format="1">
  <advance width="1000"/>
  <unicode hex="E211"/>
  <outline>
    <contour>
      <point x="310" y="90" type="line"/>
      <point x="701" y="90" type="line"/>
      <point x="701" y="100" type="line"/>
      <point x="320" y="100" type="line"/>
      <point x="320" y="389" type="line"/>
      <point x="434" y="408" type="line"/>
      <point x="434" y="418" type="line"/>
      <point x="320" y="399" type="line"/>
      <point x="320" y="630" type="line"/>
      <point x="310" y="630" type="line"/>
      <point x="310" y="398" type="line"/>
      <point x="234" y="385" type="line"/>
      <point x="234" y="375" type="line"/>
      <point x="310" y="388" type="line"/>
    </contour>
  </outline>
</glyph>
<glyph name="guilsinglleft.v" format="1">
  <advance width="1000"/>
  <unicode hex="E237"/>
  <outline>
    <contour>
      <point x="407.0" y="426" type="line" smooth="yes"/>
      <point x="413.0" y="456"/>
      <point x="427.0" y="471"/>
      <point x="461.0" y="471" type="curve" smooth="yes"/>
      <point x="539.0" y="471" type="line" smooth="yes"/>
      <point x="573.0" y="471"/>
      <point x="587.0" y="456"/>
      <point x="593.0" y="427" type="curve" smooth="yes"/>
      <point x="631.0" y="241" type="line"/>
      <point x="641.0" y="241" type="line"/>
      <point x="603.0" y="429" type="line" smooth="yes"/>
      <point x="596.0" y="464"/>
      <point x="579.0" y="481"/>
      <point x="539.0" y="481" type="curve" smooth="yes"/>
      <point x="461.0" y="481" type="line" smooth="yes"/>
      <point x="421.0" y="481"/>
      <point x="404.0" y="464"/>
      <point x="397.0" y="428" type="curve" smooth="yes"/>
      <point x="359.0" y="241" type="line"/>
      <point x="369.0" y="241" type="line"/>
    </contour>
  </outline>
</glyph>
<glyph name="ampersand.salt_v" format="1">
  <advance width="1000"/>
  <unicode hex="E243"/>
  <outline>
    <contour>
      <point x="534.0" y="90" type="line"/>
      <point x="534.0" y="0" type="line"/>
      <point x="544.0" y="0" type="line"/>
      <point x="544.0" y="90" type="line"/>
      <point x="711.0" y="90" type="line"/>
      <point x="711.0" y="100" type="line"/>
      <point x="433.0" y="100" type="line" smooth="yes"/>
      <point x="333.0" y="100"/>
      <point x="312.0" y="135"/>
      <point x="312.0" y="190" type="curve" smooth="yes"/>
      <point x="312.0" y="259" type="line" smooth="yes"/>
      <point x="312.0" y="316"/>
      <point x="334.0" y="359"/>
      <point x="432.0" y="359" type="curve"/>
      <point x="630.0" y="359" type="line"/>
      <point x="630.0" y="369" type="line"/>
      <point x="489.0" y="369" type="line" smooth="yes"/>
      <point x="388.0" y="369"/>
      <point x="378.0" y="412"/>
      <point x="378.0" y="460" type="curve" smooth="yes"/>
      <point x="378.0" y="528" type="line" smooth="yes"/>
      <point x="378.0" y="580"/>
      <point x="401.0" y="620"/>
      <point x="499.0" y="620" type="curve"/>
      <point x="711.0" y="620" type="line"/>
      <point x="711.0" y="630" type="line"/>
      <point x="544.0" y="630" type="line"/>
      <point x="544.0" y="720" type="line"/>
      <point x="534.0" y="720" type="line"/>
      <point x="534.0" y="630" type="line"/>
      <point x="499.0" y="630" type="line" smooth="yes"/>
      <point x="388.0" y="630"/>
      <point x="368.0" y="582"/>
      <point x="368.0" y="524" type="curve" smooth="yes"/>
      <point x="368.0" y="460" type="line" smooth="yes"/>
      <point x="368.0" y="422"/>
      <point x="374.0" y="385"/>
      <point x="424.0" y="368" type="curve"/>
      <point x="320.0" y="366"/>
      <point x="302.0" y="318"/>
      <point x="302.0" y="254" type="curve" smooth="yes"/>
      <point x="302.0" y="190" type="line" smooth="yes"/>
      <point x="302.0" y="131"/>
      <point x="321.0" y="90"/>
      <point x="433.0" y="90" type="curve" smooth="yes"/>
    </contour>
  </outline>
</glyph>
<glyph name="C.s_v" format="1">
  <advance width="1000"/>
  <unicode hex="E247"/>
  <outline>
    <contour>
      <point x="701.0" y="100" type="line"/>
      <point x="465.0" y="100" type="line" smooth="yes"/>
      <point x="345.0" y="100"/>
      <point x="315.0" y="132"/>
      <point x="315.0" y="219" type="curve" smooth="yes"/>
      <point x="315.0" y="459" type="line" smooth="yes"/>
      <point x="315.0" y="548"/>
      <point x="347.0" y="580"/>
      <point x="465.0" y="580" type="curve" smooth="yes"/>
      <point x="701.0" y="580" type="line"/>
      <point x="701.0" y="590" type="line"/>
      <point x="465.0" y="590" type="line" smooth="yes"/>
      <point x="337.0" y="590"/>
      <point x="305.0" y="554"/>
      <point x="305.0" y="459" type="curve" smooth="yes"/>
      <point x="305.0" y="219" type="line" smooth="yes"/>
      <point x="305.0" y="126"/>
      <point x="335.0" y="90"/>
      <point x="465.0" y="90" type="curve" smooth="yes"/>
      <point x="701.0" y="90" type="line"/>
    </contour>
  </outline>
</glyph>
<glyph name="S.s_v" format="1">
  <advance width="1000"/>
  <unicode hex="E253"/>
  <outline>
    <contour>
      <point x="685.0" y="590" type="line"/>
      <point x="411.0" y="590" type="line" smooth="yes"/>
      <point x="348.0" y="590"/>
      <point x="309.0" y="555"/>
      <point x="309.0" y="499" type="curve" smooth="yes"/>
      <point x="309.0" y="427" type="line" smooth="yes"/>
      <point x="309.0" y="382"/>
      <point x="339.0" y="351"/>
      <point x="388.0" y="346" type="curve" smooth="yes"/>
      <point x="601.0" y="325" type="line" smooth="yes"/>
      <point x="656.0" y="320"/>
      <point x="682.0" y="292"/>
      <point x="682.0" y="244" type="curve" smooth="yes"/>
      <point x="682.0" y="181" type="line" smooth="yes"/>
      <point x="682.0" y="131"/>
      <point x="643.0" y="100"/>
      <point x="581.0" y="100" type="curve" smooth="yes"/>
      <point x="290.0" y="100" type="line"/>
      <point x="290.0" y="90" type="line"/>
      <point x="581.0" y="90" type="line" smooth="yes"/>
      <point x="649.0" y="90"/>
      <point x="692.0" y="125"/>
      <point x="692.0" y="181" type="curve" smooth="yes"/>
      <point x="692.0" y="244" type="line" smooth="yes"/>
      <point x="692.0" y="298"/>
      <point x="663.0" y="329"/>
      <point x="603.0" y="335" type="curve" smooth="yes"/>
      <point x="390.0" y="356" type="line" smooth="yes"/>
      <point x="346.0" y="360"/>
      <point x="319.0" y="387"/>
      <point x="319.0" y="427" type="curve" smooth="yes"/>
      <point x="319.0" y="499" type="line" smooth="yes"/>
      <point x="319.0" y="549"/>
      <point x="354.0" y="580"/>
      <point x="411.0" y="580" type="curve" smooth="yes"/>
      <point x="685.0" y="580" type="line"/>
    </contour>
  </outline>
</glyph>
<glyph name="A.salt_s_v" format="1">
  <advance width="1000"/>
  <unicode hex="E259"/>
  <outline>
    <contour>
      <point x="315.0" y="467" type="line" smooth="yes"/>
      <point x="315.0" y="542"/>
      <point x="350.0" y="592"/>
      <point x="499.0" y="592" type="curve" smooth="yes"/>
      <point x="646.0" y="592"/>
      <point x="683.0" y="542"/>
      <point x="683.0" y="467" type="curve" smooth="yes"/>
      <point x="683.0" y="261" type="line"/>
      <point x="315.0" y="261" type="line"/>
    </contour>
    <contour>
      <point x="683.0" y="90" type="line"/>
      <point x="693.0" y="90" type="line"/>
      <point x="693.0" y="467" type="line" smooth="yes"/>
      <point x="693.0" y="548"/>
      <point x="654.0" y="602"/>
      <point x="499.0" y="602" type="curve" smooth="yes"/>
      <point x="342.0" y="602"/>
      <point x="305.0" y="548"/>
      <point x="305.0" y="467" type="curve" smooth="yes"/>
      <point x="305.0" y="90" type="line"/>
      <point x="315.0" y="90" type="line"/>
      <point x="315.0" y="251" type="line"/>
      <point x="683.0" y="251" type="line"/>
    </contour>
  </outline>
</glyph>
<glyph name="F.v" format="1">
  <advance width="1000"/>
  <unicode hex="FF26"/>
  <outline>
    <contour>
      <point x="310.0" y="90" type="line"/>
      <point x="320.0" y="90" type="line"/>
      <point x="320.0" y="324" type="line"/>
      <point x="620.0" y="324" type="line"/>
      <point x="620.0" y="334" type="line"/>
      <point x="320.0" y="334" type="line"/>
      <point x="320.0" y="620" type="line"/>
      <point x="701.0" y="620" type="line"/>
      <point x="701.0" y="630" type="line"/>
      <point x="310.0" y="630" type="line"/>
    </contour>
  </outline>
</glyph>
<glyph name="M.v" format="1">
  <advance width="1000"/>
  <unicode hex="FF2D"/>
  <outline>
    <contour>
      <point x="496.0" y="365" type="curve"/>
      <point x="477.0" y="365"/>
      <point x="471.0" y="371"/>
      <point x="455.0" y="407" type="curve" smooth="yes"/>
      <point x="362.0" y="613" type="line" smooth="yes"/>
      <point x="356.0" y="627"/>
      <point x="341.0" y="630"/>
      <point x="329.0" y="630" type="curve" smooth="yes"/>
      <point x="312.0" y="630" type="line" smooth="yes"/>
      <point x="289.0" y="630"/>
      <point x="279.0" y="621"/>
      <point x="279.0" y="599" type="curve" smooth="yes"/>
      <point x="277.0" y="90" type="line"/>
      <point x="287.0" y="90" type="line"/>
      <point x="289.0" y="599" type="line" smooth="yes"/>
      <point x="289.0" y="610"/>
      <point x="293.0" y="620"/>
      <point x="312.0" y="620" type="curve" smooth="yes"/>
      <point x="327.0" y="620" type="line" smooth="yes"/>
      <point x="337.0" y="620"/>
      <point x="348.0" y="620"/>
      <point x="354.0" y="606" type="curve" smooth="yes"/>
      <point x="447.0" y="402" type="line" smooth="yes"/>
      <point x="464.0" y="364"/>
      <point x="472.0" y="355"/>
      <point x="496.0" y="355" type="curve"/>
      <point x="520.0" y="355"/>
      <point x="528.0" y="364"/>
      <point x="545.0" y="402" type="curve" smooth="yes"/>
      <point x="638.0" y="606" type="line" smooth="yes"/>
      <point x="644.0" y="620"/>
      <point x="655.0" y="620"/>
      <point x="665.0" y="620" type="curve" smooth="yes"/>
      <point x="684.0" y="620" type="line" smooth="yes"/>
      <point x="700.0" y="620"/>
      <point x="703.0" y="610"/>
      <point x="703.0" y="599" type="curve" smooth="yes"/>
      <point x="705.0" y="90" type="line"/>
      <point x="715.0" y="90" type="line"/>
      <point x="713.0" y="599" type="line" smooth="yes"/>
      <point x="713.0" y="621"/>
      <point x="704.0" y="630"/>
      <point x="684.0" y="630" type="curve" smooth="yes"/>
      <point x="663.0" y="630" type="line" smooth="yes"/>
      <point x="651.0" y="630"/>
      <point x="637.0" y="628"/>
      <point x="630.0" y="613" type="curve" smooth="yes"/>
      <point x="537.0" y="407" type="line" smooth="yes"/>
      <point x="520.0" y="369"/>
      <point x="515.0" y="365"/>
    </contour>
  </outline>
</glyph>
<glyph name="X.v" format="1">
  <advance width="1000"/>
  <unicode hex="FF38"/>
  <outline>
    <contour>
      <point x="317" y="135" type="line" smooth="yes"/>
      <point x="317" y="163"/>
      <point x="319" y="190"/>
      <point x="331" y="208" type="curve" smooth="yes"/>
      <point x="439" y="370" type="line"/>
      <point x="559" y="370" type="line"/>
      <point x="670" y="208" type="line" smooth="yes"/>
      <point x="683" y="188"/>
      <point x="684" y="163"/>
      <point x="684" y="135" type="curve" smooth="yes"/>
      <point x="684" y="90" type="line"/>
      <point x="694" y="90" type="line"/>
      <point x="694" y="135" type="line" smooth="yes"/>
      <point x="694" y="164"/>
      <point x="693" y="191"/>
      <point x="679" y="212" type="curve" smooth="yes"/>
      <point x="567" y="374" type="line"/>
      <point x="679" y="538" type="line" smooth="yes"/>
      <point x="694" y="560"/>
      <point x="694" y="586"/>
      <point x="694" y="615" type="curve" smooth="yes"/>
      <point x="694" y="630" type="line"/>
      <point x="684" y="630" type="line"/>
      <point x="684" y="615" type="line" smooth="yes"/>
      <point x="684" y="587"/>
      <point x="683" y="561"/>
      <point x="670" y="542" type="curve" smooth="yes"/>
      <point x="560" y="380" type="line"/>
      <point x="441" y="380" type="line"/>
      <point x="331" y="542" type="line" smooth="yes"/>
      <point x="318" y="562"/>
      <point x="317" y="587"/>
      <point x="317" y="615" type="curve" smooth="yes"/>
      <point x="317" y="630" type="line"/>
      <point x="307" y="630" type="line"/>
      <point x="307" y="615" type="line" smooth="yes"/>
      <point x="307" y="586"/>
      <point x="308" y="559"/>
      <point x="322" y="538" type="curve" smooth="yes"/>
      <point x="432" y="376" type="line"/>
      <point x="322" y="212" type="line" smooth="yes"/>
      <point x="307" y="189"/>
      <point x="307" y="164"/>
      <point x="307" y="135" type="curve" smooth="yes"/>
      <point x="307" y="90" type="line"/>
      <point x="317" y="90" type="line"/>
    </contour>
    <contour>
      <point x="508.0" y="747.0" type="move" name="top"/>
    </contour>
    <contour>
      <point x="508.0" y="0.0" type="move" name="bottom"/>
    </contour>
  </outline>
</glyph>
<glyph name="I.s_v" format="1">
  <advance width="1000"/>
  <outline>
    <contour>
      <point x="701.0" y="90" type="line"/>
      <point x="701.0" y="100" type="line"/>
      <point x="505.0" y="100" type="line"/>
      <point x="505.0" y="580" type="line"/>
      <point x="701.0" y="580" type="line"/>
      <point x="701.0" y="590" type="line"/>
      <point x="299.0" y="590" type="line"/>
      <point x="299.0" y="580" type="line"/>
      <point x="495.0" y="580" type="line"/>
      <point x="495.0" y="100" type="line"/>
      <point x="299.0" y="100" type="line"/>
      <point x="299.0" y="90" type="line"/>
    </contour>
  </outline>
</glyph>
<glyph name="L.s_v" format="1">
  <advance width="1000"/>
  <outline>
    <contour>
      <point x="310.0" y="90" type="line"/>
      <point x="697.0" y="90" type="line"/>
      <point x="697.0" y="287" type="line"/>
      <point x="687.0" y="287" type="line"/>
      <point x="687.0" y="100" type="line"/>
      <point x="320.0" y="100" type="line"/>
      <point x="320.0" y="590" type="line"/>
      <point x="310.0" y="590" type="line"/>
    </contour>
  </outline>
</glyph>
<glyph name="N.s_v" format="1">
  <advance width="1000"/>
  <outline>
    <contour>
      <point x="318.0" y="591" type="curve" smooth="yes"/>
      <point x="312.0" y="591"/>
      <point x="306.0" y="587"/>
      <point x="306.0" y="579" type="curve" smooth="yes"/>
      <point x="306.0" y="90" type="line"/>
      <point x="316.0" y="90" type="line"/>
      <point x="316.0" y="577" type="line" smooth="yes"/>
      <point x="316.0" y="578"/>
      <point x="316.0" y="580"/>
      <point x="318.0" y="580" type="curve" smooth="yes"/>
      <point x="320.0" y="580"/>
      <point x="321.0" y="579"/>
      <point x="323.0" y="577" type="curve" smooth="yes"/>
      <point x="685.0" y="173" type="line"/>
      <point x="685.0" y="90" type="line"/>
      <point x="695.0" y="90" type="line"/>
      <point x="695.0" y="590" type="line"/>
      <point x="685.0" y="590" type="line"/>
      <point x="685.0" y="188" type="line"/>
      <point x="333.0" y="582" type="line"/>
      <point x="326.0" y="589"/>
      <point x="324.0" y="591"/>
    </contour>
  </outline>
</glyph>
<glyph name="Z.s_v" format="1">
  <advance width="1000"/>
  <outline>
    <contour>
      <point x="685.0" y="504" type="line" smooth="yes"/>
      <point x="697.0" y="514"/>
      <point x="702.0" y="526"/>
      <point x="702.0" y="541" type="curve" smooth="yes"/>
      <point x="702.0" y="557" type="line" smooth="yes"/>
      <point x="702.0" y="580"/>
      <point x="693.0" y="590"/>
      <point x="671.0" y="590" type="curve" smooth="yes"/>
      <point x="298.0" y="590" type="line"/>
      <point x="298.0" y="580" type="line"/>
      <point x="671.0" y="580" type="line" smooth="yes"/>
      <point x="682.0" y="580"/>
      <point x="692.0" y="576"/>
      <point x="692.0" y="557" type="curve" smooth="yes"/>
      <point x="692.0" y="543" type="line" smooth="yes"/>
      <point x="692.0" y="530"/>
      <point x="690.0" y="522"/>
      <point x="678.0" y="512" type="curve" smooth="yes"/>
      <point x="307.0" y="176" type="line"/>
      <point x="297.0" y="164"/>
      <point x="290.0" y="154"/>
      <point x="290.0" y="139" type="curve" smooth="yes"/>
      <point x="290.0" y="123" type="line" smooth="yes"/>
      <point x="290.0" y="100"/>
      <point x="299.0" y="90"/>
      <point x="321.0" y="90" type="curve" smooth="yes"/>
      <point x="710.0" y="90" type="line"/>
      <point x="710.0" y="100" type="line"/>
      <point x="321.0" y="100" type="line" smooth="yes"/>
      <point x="310.0" y="100"/>
      <point x="300.0" y="104"/>
      <point x="300.0" y="123" type="curve" smooth="yes"/>
      <point x="300.0" y="137" type="line" smooth="yes"/>
      <point x="300.0" y="150"/>
      <point x="304.0" y="156"/>
      <point x="314.0" y="168" type="curve"/>
    </contour>
  </outline>
</glyph>
<glyph name="ampersand.salt" format="1">
  <advance width="632"/>
  <outline>
    <contour>
      <point x="355.0" y="90" type="line"/>
      <point x="355.0" y="0" type="line"/>
      <point x="365.0" y="0" type="line"/>
      <point x="365.0" y="90" type="line"/>
      <point x="494.0" y="90" type="line"/>
      <point x="494.0" y="100" type="line"/>
      <point x="274.0" y="100" type="line" smooth="yes"/>
      <point x="174.0" y="100"/>
      <point x="153.0" y="135"/>
      <point x="153.0" y="190" type="curve" smooth="yes"/>
      <point x="153.0" y="259" type="line" smooth="yes"/>
      <point x="153.0" y="316"/>
      <point x="175.0" y="359"/>
      <point x="273.0" y="359" type="curve"/>
      <point x="413.0" y="359" type="line"/>
      <point x="413.0" y="369" type="line"/>
      <point x="330.0" y="369" type="line" smooth="yes"/>
      <point x="229.0" y="369"/>
      <point x="219.0" y="412"/>
      <point x="219.0" y="460" type="curve" smooth="yes"/>
      <point x="219.0" y="528" type="line" smooth="yes"/>
      <point x="219.0" y="580"/>
      <point x="242.0" y="620"/>
      <point x="340.0" y="620" type="curve"/>
      <point x="494.0" y="620" type="line"/>
      <point x="494.0" y="630" type="line"/>
      <point x="365.0" y="630" type="line"/>
      <point x="365.0" y="720" type="line"/>
      <point x="355.0" y="720" type="line"/>
      <point x="355.0" y="630" type="line"/>
      <point x="340.0" y="630" type="line" smooth="yes"/>
      <point x="229.0" y="630"/>
      <point x="209.0" y="582"/>
      <point x="209.0" y="524" type="curve" smooth="yes"/>
      <point x="209.0" y="460" type="line" smooth="yes"/>
      <point x="209.0" y="422"/>
      <point x="215.0" y="385"/>
      <point x="265.0" y="368" type="curve"/>
      <point x="161.0" y="366"/>
      <point x="143.0" y="318"/>
      <point x="143.0" y="254" type="curve" smooth="yes"/>
      <point x="143.0" y="190" type="line" smooth="yes"/>
      <point x="143.0" y="131"/>
      <point x="162.0" y="90"/>
      <point x="274.0" y="90" type="curve" smooth="yes"/>
    </contour>
  </outline>
</glyph>
<glyph name="arrowdown.chevron" format="1">
  <advance width="1280.0"/>
  <outline>
    <contour>
      <point x="120.0" y="1045" type="line"/>
      <point x="120.0" y="253" type="line"/>
      <point x="-35.0" y="253" type="line"/>
      <point x="-49.0" y="253"/>
      <point x="-54.0" y="247"/>
      <point x="-54.0" y="235" type="curve" smooth="yes"/>
      <point x="-54.0" y="226"/>
      <point x="-49.0" y="216"/>
      <point x="-40.0" y="209" type="curve" smooth="yes"/>
      <point x="594.0" y="-308" type="line" smooth="yes"/>
      <point x="612.0" y="-323"/>
      <point x="626.0" y="-331"/>
      <point x="641.0" y="-331" type="curve" smooth="yes"/>
      <point x="656.0" y="-331"/>
      <point x="670.0" y="-323"/>
      <point x="688.0" y="-308" type="curve" smooth="yes"/>
      <point x="1314.0" y="208" type="line" smooth="yes"/>
      <point x="1327.0" y="220"/>
      <point x="1334.0" y="228"/>
      <point x="1334.0" y="238" type="curve" smooth="yes"/>
      <point x="1334.0" y="247"/>
      <point x="1331.0" y="253"/>
      <point x="1311.0" y="253" type="curve" smooth="yes"/>
      <point x="1160.0" y="253" type="line"/>
      <point x="1160.0" y="1048" type="line"/>
      <point x="640.0" y="841" type="line"/>
    </contour>
    <contour>
      <point x="130.0" y="1032" type="line"/>
      <point x="640.0" y="830" type="line"/>
      <point x="1150.0" y="1033" type="line"/>
      <point x="1150.0" y="243" type="line"/>
      <point x="1311.0" y="243" type="line"/>
      <point x="1318.0" y="243"/>
      <point x="1324.0" y="243"/>
      <point x="1324.0" y="238" type="curve" smooth="yes"/>
      <point x="1324.0" y="230"/>
      <point x="1317.0" y="224"/>
      <point x="1308.0" y="216" type="curve" smooth="yes"/>
      <point x="682.0" y="-300" type="line" smooth="yes"/>
      <point x="666.0" y="-313"/>
      <point x="654.0" y="-321"/>
      <point x="641.0" y="-321" type="curve" smooth="yes"/>
      <point x="628.0" y="-321"/>
      <point x="616.0" y="-313"/>
      <point x="600.0" y="-300" type="curve" smooth="yes"/>
      <point x="-34.0" y="217" type="line" smooth="yes"/>
      <point x="-41.0" y="222"/>
      <point x="-44.0" y="228"/>
      <point x="-44.0" y="235" type="curve" smooth="yes"/>
      <point x="-44.0" y="241"/>
      <point x="-41.0" y="243"/>
      <point x="-35.0" y="243" type="curve" smooth="yes"/>
      <point x="130.0" y="243" type="line"/>
    </contour>
  </outline>
</glyph>
<glyph name="equal.salt" format="1">
  <advance width="400.0"/>
  <outline>
    <contour>
      <point x="664.0" y="560" type="line" smooth="yes"/>
      <point x="676.0" y="560"/>
      <point x="680.0" y="564"/>
      <point x="680.0" y="576" type="curve" smooth="yes"/>
      <point x="680.0" y="644" type="line" smooth="yes"/>
      <point x="680.0" y="656"/>
      <point x="676.0" y="660"/>
      <point x="664.0" y="660" type="curve" smooth="yes"/>
      <point x="-264.0" y="660" type="line" smooth="yes"/>
      <point x="-276.0" y="660"/>
      <point x="-280.0" y="656"/>
      <point x="-280.0" y="644" type="curve" smooth="yes"/>
      <point x="-280.0" y="576" type="line" smooth="yes"/>
      <point x="-280.0" y="564"/>
      <point x="-276.0" y="560"/>
      <point x="-264.0" y="560" type="curve" smooth="yes"/>
    </contour>
    <contour>
      <point x="-270.0" y="576" type="curve" smooth="yes"/>
      <point x="-270.0" y="644" type="line" smooth="yes"/>
      <point x="-270.0" y="648"/>
      <point x="-268.0" y="650"/>
      <point x="-264.0" y="650" type="curve" smooth="yes"/>
      <point x="664.0" y="650" type="line" smooth="yes"/>
      <point x="668.0" y="650"/>
      <point x="670.0" y="648"/>
      <point x="670.0" y="644" type="curve" smooth="yes"/>
      <point x="670.0" y="576" type="line" smooth="yes"/>
      <point x="670.0" y="572"/>
      <point x="668.0" y="570"/>
      <point x="664.0" y="570" type="curve" smooth="yes"/>
      <point x="-264.0" y="570" type="line" smooth="yes"/>
      <point x="-268.0" y="570"/>
      <point x="-270.0" y="572"/>
    </contour>
    <contour>
      <point x="664.0" y="60" type="line" smooth="yes"/>
      <point x="676.0" y="60"/>
      <point x="680.0" y="64"/>
      <point x="680.0" y="76" type="curve" smooth="yes"/>
      <point x="680.0" y="144" type="line" smooth="yes"/>
      <point x="680.0" y="156"/>
      <point x="676.0" y="160"/>
      <point x="664.0" y="160" type="curve" smooth="yes"/>
      <point x="-264.0" y="160" type="line" smooth="yes"/>
      <point x="-276.0" y="160"/>
      <point x="-280.0" y="156"/>
      <point x="-280.0" y="144" type="curve" smooth="yes"/>
      <point x="-280.0" y="76" type="line" smooth="yes"/>
      <point x="-280.0" y="64"/>
      <point x="-276.0" y="60"/>
      <point x="-264.0" y="60" type="curve" smooth="yes"/>
    </contour>
    <contour>
      <point x="-270.0" y="76" type="curve" smooth="yes"/>
      <point x="-270.0" y="144" type="line" smooth="yes"/>
      <point x="-270.0" y="148"/>
      <point x="-268.0" y="150"/>
      <point x="-264.0" y="150" type="curve" smooth="yes"/>
      <point x="664.0" y="150" type="line" smooth="yes"/>
      <point x="668.0" y="150"/>
      <point x="670.0" y="148"/>
      <point x="670.0" y="144" type="curve" smooth="yes"/>
      <point x="670.0" y="76" type="line" smooth="yes"/>
      <point x="670.0" y="72"/>
      <point x="668.0" y="70"/>
      <point x="664.0" y="70" type="curve" smooth="yes"/>
      <point x="-264.0" y="70" type="line" smooth="yes"/>
      <point x="-268.0" y="70"/>
      <point x="-270.0" y="72"/>
    </contour>
  </outline>
</glyph>
<glyph name="four.sups" format="1">
  <advance width="508.0"/>
  <outline>
    <contour>
      <point x="372" y="266" type="line"/>
      <point x="382" y="266" type="line"/>
      <point x="382" y="655" type="line"/>
      <point x="372" y="655" type="line"/>
      <point x="372" y="402" type="line"/>
      <point x="201" y="402" type="line" smooth="yes"/>
      <point x="153" y="402"/>
      <point x="130" y="424"/>
      <point x="130" y="469" type="curve" smooth="yes"/>
      <point x="130" y="655" type="line"/>
      <point x="120" y="655" type="line"/>
      <point x="120" y="469" type="line" smooth="yes"/>
      <point x="120" y="418"/>
      <point x="145" y="393"/>
      <point x="201" y="393" type="curve" smooth="yes"/>
      <point x="372" y="393" type="line"/>
    </contour>
  </outline>
</glyph>
<glyph name="guilsinglright.v" format="1">
  <advance width="1000"/>
  <outline>
    <contour>
      <point x="359.0" y="478" type="line"/>
      <point x="397.0" y="291" type="line" smooth="yes"/>
      <point x="404.0" y="255"/>
      <point x="421.0" y="238"/>
      <point x="461.0" y="238" type="curve" smooth="yes"/>
      <point x="539.0" y="238" type="line" smooth="yes"/>
      <point x="579.0" y="238"/>
      <point x="596.0" y="255"/>
      <point x="603.0" y="290" type="curve" smooth="yes"/>
      <point x="641.0" y="478" type="line"/>
      <point x="631.0" y="478" type="line"/>
      <point x="593.0" y="292" type="line" smooth="yes"/>
      <point x="587.0" y="263"/>
      <point x="573.0" y="248"/>
      <point x="539.0" y="248" type="curve" smooth="yes"/>
      <point x="461.0" y="248" type="line" smooth="yes"/>
      <point x="427.0" y="248"/>
      <point x="413.0" y="263"/>
      <point x="407.0" y="293" type="curve" smooth="yes"/>
      <point x="369.0" y="478" type="line"/>
    </contour>
  </outline>
</glyph>
<glyph name="three.sups" format="1">
  <advance width="484"/>
  <outline>
    <contour>
      <point x="173" y="459" type="line"/>
      <point x="282" y="459" type="line" smooth="yes"/>
      <point x="336" y="459"/>
      <point x="359" y="436"/>
      <point x="359" y="388" type="curve" smooth="yes"/>
      <point x="359" y="339" type="line" smooth="yes"/>
      <point x="359" y="300"/>
      <point x="344" y="275"/>
      <point x="273" y="275" type="curve" smooth="yes"/>
      <point x="114" y="275" type="line"/>
      <point x="114" y="266" type="line"/>
      <point x="273" y="266" type="line" smooth="yes"/>
      <point x="354" y="266"/>
      <point x="368" y="295"/>
      <point x="368" y="339" type="curve" smooth="yes"/>
      <point x="368" y="388" type="line" smooth="yes"/>
      <point x="368" y="439"/>
      <point x="344" y="466"/>
      <point x="283" y="466" type="curve" smooth="yes"/>
      <point x="272" y="466" type="line"/>
      <point x="316" y="475"/>
      <point x="320" y="506"/>
      <point x="320" y="533" type="curve" smooth="yes"/>
      <point x="320" y="579" type="line" smooth="yes"/>
      <point x="320" y="622"/>
      <point x="306" y="656"/>
      <point x="225" y="656" type="curve" smooth="yes"/>
      <point x="114" y="656" type="line"/>
      <point x="114" y="647" type="line"/>
      <point x="225" y="647" type="line"/>
      <point x="295" y="647"/>
      <point x="311" y="618"/>
      <point x="311" y="582" type="curve" smooth="yes"/>
      <point x="311" y="533" type="line" smooth="yes"/>
      <point x="311" y="499"/>
      <point x="304" y="468"/>
      <point x="232" y="468" type="curve" smooth="yes"/>
      <point x="173" y="468" type="line"/>
    </contour>
  </outline>
</glyph>
<glyph name="two.sups" format="1">
  <advance width="485"/>
  <outline>
    <contour>
      <point x="158" y="439" type="line" smooth="yes"/>
      <point x="127" y="429"/>
      <point x="117" y="415"/>
      <point x="117" y="379" type="curve" smooth="yes"/>
      <point x="117" y="266" type="line"/>
      <point x="369" y="266" type="line"/>
      <point x="369" y="275" type="line"/>
      <point x="126" y="275" type="line"/>
      <point x="126" y="379" type="line" smooth="yes"/>
      <point x="126" y="410"/>
      <point x="134" y="421"/>
      <point x="161" y="430" type="curve" smooth="yes"/>
      <point x="328" y="486" type="line"/>
      <point x="345" y="492"/>
      <point x="355" y="504"/>
      <point x="355" y="527" type="curve" smooth="yes"/>
      <point x="355" y="593" type="line" smooth="yes"/>
      <point x="355" y="642"/>
      <point x="327" y="656"/>
      <point x="277" y="656" type="curve" smooth="yes"/>
      <point x="132" y="656" type="line"/>
      <point x="132" y="647" type="line"/>
      <point x="277" y="647" type="line" smooth="yes"/>
      <point x="319" y="647"/>
      <point x="345" y="636"/>
      <point x="345" y="593" type="curve" smooth="yes"/>
      <point x="345" y="527" type="line" smooth="yes"/>
      <point x="345" y="510"/>
      <point x="337" y="499"/>
      <point x="326" y="494" type="curve"/>
    </contour>
  </outline>
</glyph>
<glyph name="uni21AC.v_arrow" format="1">
  <advance width="1335"/>
  <outline>
    <contour>
      <point x="158.0" y="900" type="line"/>
      <point x="148.0" y="900" type="line"/>
      <point x="148.0" y="601" type="line" smooth="yes"/>
      <point x="148.0" y="171"/>
      <point x="391.0" y="-113"/>
      <point x="928.0" y="-113" type="curve" smooth="yes"/>
      <point x="1336.0" y="-113" type="line"/>
      <point x="1336.0" y="-287" type="line" smooth="yes"/>
      <point x="1336.0" y="-296"/>
      <point x="1342.0" y="-303"/>
      <point x="1351.0" y="-303" type="curve" smooth="yes"/>
      <point x="1361.0" y="-303"/>
      <point x="1374.0" y="-291"/>
      <point x="1382.0" y="-282" type="curve" smooth="yes"/>
      <point x="1898.0" y="267" type="line" smooth="yes"/>
      <point x="1913.0" y="283"/>
      <point x="1922.0" y="297"/>
      <point x="1922.0" y="313" type="curve" smooth="yes"/>
      <point x="1922.0" y="328"/>
      <point x="1914.0" y="342"/>
      <point x="1898.0" y="359" type="curve" smooth="yes"/>
      <point x="1382.0" y="901" type="line" smooth="yes"/>
      <point x="1373.0" y="909"/>
      <point x="1365.0" y="920"/>
      <point x="1352.0" y="920" type="curve" smooth="yes"/>
      <point x="1343.0" y="920"/>
      <point x="1336.0" y="913"/>
      <point x="1336.0" y="904" type="curve" smooth="yes"/>
      <point x="1336.0" y="747" type="line"/>
      <point x="1269.0" y="747" type="line" smooth="yes"/>
      <point x="1210.0" y="747"/>
      <point x="1188.0" y="773"/>
      <point x="1188.0" y="841" type="curve" smooth="yes"/>
      <point x="1188.0" y="900" type="line"/>
      <point x="1178.0" y="900" type="line"/>
      <point x="1178.0" y="841" type="line" smooth="yes"/>
      <point x="1178.0" y="765"/>
      <point x="1204.0" y="737"/>
      <point x="1269.0" y="737" type="curve" smooth="yes"/>
      <point x="1346.0" y="737" type="line"/>
      <point x="1346.0" y="904" type="line" smooth="yes"/>
      <point x="1346.0" y="908"/>
      <point x="1348.0" y="910"/>
      <point x="1352.0" y="910" type="curve" smooth="yes"/>
      <point x="1358.0" y="910"/>
      <point x="1367.0" y="900"/>
      <point x="1374.0" y="893" type="curve" smooth="yes"/>
      <point x="1890.0" y="353" type="line" smooth="yes"/>
      <point x="1904.0" y="338"/>
      <point x="1912.0" y="326"/>
      <point x="1912.0" y="313" type="curve" smooth="yes"/>
      <point x="1912.0" y="299"/>
      <point x="1903.0" y="287"/>
      <point x="1890.0" y="273" type="curve" smooth="yes"/>
      <point x="1374.0" y="-276" type="line" smooth="yes"/>
      <point x="1366.0" y="-285"/>
      <point x="1357.0" y="-293"/>
      <point x="1351.0" y="-293" type="curve" smooth="yes"/>
      <point x="1347.0" y="-293"/>
      <point x="1346.0" y="-291"/>
      <point x="1346.0" y="-287" type="curve" smooth="yes"/>
      <point x="1346.0" y="-103" type="line"/>
      <point x="928.0" y="-103" type="line" smooth="yes"/>
      <point x="399.0" y="-103"/>
      <point x="158.0" y="177"/>
      <point x="158.0" y="601" type="curve" smooth="yes"/>
    </contour>
  </outline>
</glyph>
<glyph name="uni25D7.spike" format="1">
  <advance width="350"/>
  <outline>
    <contour>
      <point x="118.0" y="101" type="curve" smooth="yes"/>
      <point x="225.0" y="-169" type="line" smooth="yes"/>
      <point x="226.0" y="-171"/>
      <point x="225.0" y="-172"/>
      <point x="217.0" y="-171" type="curve" smooth="yes"/>
      <point x="74.0" y="-154" type="line" smooth="yes"/>
      <point x="39.0" y="-150"/>
      <point x="33.0" y="-150"/>
      <point x="12.0" y="-150" type="curve" smooth="yes"/>
      <point x="-40.0" y="-150" type="line"/>
      <point x="-40.0" y="-160" type="line"/>
      <point x="12.0" y="-160" type="line" smooth="yes"/>
      <point x="33.0" y="-160"/>
      <point x="39.0" y="-160"/>
      <point x="72.0" y="-164" type="curve" smooth="yes"/>
      <point x="224.0" y="-182" type="line"/>
      <point x="234.0" y="-184"/>
      <point x="240.0" y="-177"/>
      <point x="235.0" y="-165" type="curve" smooth="yes"/>
      <point x="128.0" y="106" type="line" smooth="yes"/>
      <point x="122.0" y="121"/>
      <point x="123.0" y="143"/>
      <point x="135.0" y="157" type="curve" smooth="yes"/>
      <point x="292.0" y="346" type="line" smooth="yes"/>
      <point x="298.0" y="354"/>
      <point x="298.0" y="366"/>
      <point x="292.0" y="374" type="curve" smooth="yes"/>
      <point x="135.0" y="563" type="line" smooth="yes"/>
      <point x="123.0" y="577"/>
      <point x="121.0" y="599"/>
      <point x="128.0" y="614" type="curve" smooth="yes"/>
      <point x="233.0" y="881" type="line" smooth="yes"/>
      <point x="239.0" y="900"/>
      <point x="234.0" y="902"/>
      <point x="219.0" y="901" type="curve" smooth="yes"/>
      <point x="72.0" y="884" type="line" smooth="yes"/>
      <point x="39.0" y="880"/>
      <point x="33.0" y="880"/>
      <point x="12.0" y="880" type="curve" smooth="yes"/>
      <point x="-40.0" y="880" type="line"/>
      <point x="-40.0" y="870" type="line"/>
      <point x="12.0" y="870" type="line" smooth="yes"/>
      <point x="33.0" y="870"/>
      <point x="39.0" y="870"/>
      <point x="74.0" y="874" type="curve" smooth="yes"/>
      <point x="221.0" y="891" type="line" smooth="yes"/>
      <point x="226.0" y="892"/>
      <point x="225.0" y="888"/>
      <point x="223.0" y="885" type="curve" smooth="yes"/>
      <point x="118.0" y="618" type="line" smooth="yes"/>
      <point x="111.0" y="599"/>
      <point x="113.0" y="573"/>
      <point x="127.0" y="557" type="curve" smooth="yes"/>
      <point x="284.0" y="368" type="line" smooth="yes"/>
      <point x="288.0" y="364"/>
      <point x="288.0" y="356"/>
      <point x="284.0" y="352" type="curve" smooth="yes"/>
      <point x="127.0" y="163" type="line" smooth="yes"/>
      <point x="113.0" y="147"/>
      <point x="111.0" y="120"/>
    </contour>
  </outline>
</glyph>
<glyph name="uni25D7.v_bevel" format="1">
  <advance width="1335"/>
  <outline>
    <contour>
      <point x="148.0" y="520" type="line"/>
      <point x="148.0" y="436" type="line" smooth="yes"/>
      <point x="148.0" y="424"/>
      <point x="152.0" y="420"/>
      <point x="164.0" y="420" type="curve" smooth="yes"/>
      <point x="208.0" y="420" type="line"/>
      <point x="208.0" y="400" type="line" smooth="yes"/>
      <point x="208.0" y="334"/>
      <point x="262.0" y="280"/>
      <point x="328.0" y="280" type="curve" smooth="yes"/>
      <point x="348.0" y="280" type="line"/>
      <point x="348.0" y="236" type="line" smooth="yes"/>
      <point x="348.0" y="224"/>
      <point x="352.0" y="220"/>
      <point x="364.0" y="220" type="curve" smooth="yes"/>
      <point x="972.0" y="220" type="line" smooth="yes"/>
      <point x="984.0" y="220"/>
      <point x="988.0" y="224"/>
      <point x="988.0" y="236" type="curve" smooth="yes"/>
      <point x="988.0" y="280" type="line"/>
      <point x="1008.0" y="280" type="line" smooth="yes"/>
      <point x="1074.0" y="280"/>
      <point x="1128.0" y="334"/>
      <point x="1128.0" y="400" type="curve" smooth="yes"/>
      <point x="1128.0" y="420" type="line"/>
      <point x="1172.0" y="420" type="line" smooth="yes"/>
      <point x="1184.0" y="420"/>
      <point x="1188.0" y="424"/>
      <point x="1188.0" y="436" type="curve" smooth="yes"/>
      <point x="1188.0" y="520" type="line"/>
      <point x="1178.0" y="520" type="line"/>
      <point x="1178.0" y="436" type="line" smooth="yes"/>
      <point x="1178.0" y="432"/>
      <point x="1176.0" y="430"/>
      <point x="1172.0" y="430" type="curve" smooth="yes"/>
      <point x="1118.0" y="430" type="line"/>
      <point x="1118.0" y="400" type="line" smooth="yes"/>
      <point x="1118.0" y="340"/>
      <point x="1068.0" y="290"/>
      <point x="1008.0" y="290" type="curve" smooth="yes"/>
      <point x="978.0" y="290" type="line"/>
      <point x="978.0" y="236" type="line" smooth="yes"/>
      <point x="978.0" y="232"/>
      <point x="976.0" y="230"/>
      <point x="972.0" y="230" type="curve" smooth="yes"/>
      <point x="364.0" y="230" type="line" smooth="yes"/>
      <point x="360.0" y="230"/>
      <point x="358.0" y="232"/>
      <point x="358.0" y="236" type="curve" smooth="yes"/>
      <point x="358.0" y="290" type="line"/>
      <point x="328.0" y="290" type="line" smooth="yes"/>
      <point x="268.0" y="290"/>
      <point x="218.0" y="340"/>
      <point x="218.0" y="400" type="curve" smooth="yes"/>
      <point x="218.0" y="430" type="line"/>
      <point x="164.0" y="430" type="line" smooth="yes"/>
      <point x="160.0" y="430"/>
      <point x="158.0" y="432"/>
      <point x="158.0" y="436" type="curve" smooth="yes"/>
      <point x="158.0" y="520" type="line"/>
    </contour>
  </outline>
</glyph>
<glyph name="uni25D7.v_spike" format="1">
  <advance width="1335"/>
  <outline>
    <contour>
      <point x="409.0" y="380" type="curve" smooth="yes"/>
      <point x="139.0" y="273" type="line" smooth="yes"/>
      <point x="137.0" y="272"/>
      <point x="136.0" y="273"/>
      <point x="137.0" y="281" type="curve" smooth="yes"/>
      <point x="154.0" y="424" type="line" smooth="yes"/>
      <point x="158.0" y="459"/>
      <point x="158.0" y="465"/>
      <point x="158.0" y="486" type="curve" smooth="yes"/>
      <point x="158.0" y="538" type="line"/>
      <point x="148.0" y="538" type="line"/>
      <point x="148.0" y="486" type="line" smooth="yes"/>
      <point x="148.0" y="465"/>
      <point x="148.0" y="459"/>
      <point x="144.0" y="426" type="curve" smooth="yes"/>
      <point x="126.0" y="274" type="line"/>
      <point x="124.0" y="264"/>
      <point x="131.0" y="258"/>
      <point x="143.0" y="263" type="curve" smooth="yes"/>
      <point x="414.0" y="370" type="line" smooth="yes"/>
      <point x="429.0" y="376"/>
      <point x="451.0" y="375"/>
      <point x="465.0" y="363" type="curve" smooth="yes"/>
      <point x="654.0" y="206" type="line" smooth="yes"/>
      <point x="662.0" y="200"/>
      <point x="674.0" y="200"/>
      <point x="682.0" y="206" type="curve" smooth="yes"/>
      <point x="871.0" y="363" type="line" smooth="yes"/>
      <point x="885.0" y="375"/>
      <point x="907.0" y="377"/>
      <point x="922.0" y="370" type="curve" smooth="yes"/>
      <point x="1189.0" y="265" type="line" smooth="yes"/>
      <point x="1208.0" y="259"/>
      <point x="1210.0" y="264"/>
      <point x="1209.0" y="279" type="curve" smooth="yes"/>
      <point x="1192.0" y="426" type="line" smooth="yes"/>
      <point x="1188.0" y="459"/>
      <point x="1188.0" y="465"/>
      <point x="1188.0" y="486" type="curve" smooth="yes"/>
      <point x="1188.0" y="538" type="line"/>
      <point x="1178.0" y="538" type="line"/>
      <point x="1178.0" y="486" type="line" smooth="yes"/>
      <point x="1178.0" y="465"/>
      <point x="1178.0" y="459"/>
      <point x="1182.0" y="424" type="curve" smooth="yes"/>
      <point x="1199.0" y="277" type="line" smooth="yes"/>
      <point x="1200.0" y="272"/>
      <point x="1196.0" y="273"/>
      <point x="1193.0" y="275" type="curve" smooth="yes"/>
      <point x="926.0" y="380" type="line" smooth="yes"/>
      <point x="907.0" y="387"/>
      <point x="881.0" y="385"/>
      <point x="865.0" y="371" type="curve" smooth="yes"/>
      <point x="676.0" y="214" type="line" smooth="yes"/>
      <point x="672.0" y="210"/>
      <point x="664.0" y="210"/>
      <point x="660.0" y="214" type="curve" smooth="yes"/>
      <point x="471.0" y="371" type="line" smooth="yes"/>
      <point x="455.0" y="385"/>
      <point x="428.0" y="387"/>
    </contour>
  </outline>
</glyph>
<glyph name="uni27A1.w" format="1">
  <advance width="650"/>
  <outline>
    <contour>
      <point x="689.0" y="870" type="line"/>
      <point x="689.0" y="880" type="line"/>
      <point x="622.0" y="880" type="line"/>
      <point x="622.0" y="1041" type="line" smooth="yes"/>
      <point x="622.0" y="1068"/>
      <point x="600.0" y="1084"/>
      <point x="575.0" y="1084" type="curve" smooth="yes"/>
      <point x="550.0" y="1084"/>
      <point x="521.0" y="1070"/>
      <point x="498.0" y="1039" type="curve" smooth="yes"/>
      <point x="62.0" y="459" type="line" smooth="yes"/>
      <point x="38.0" y="429"/>
      <point x="28.0" y="395"/>
      <point x="28.0" y="361" type="curve" smooth="yes"/>
      <point x="28.0" y="327"/>
      <point x="38.0" y="293"/>
      <point x="62.0" y="263" type="curve" smooth="yes"/>
      <point x="498.0" y="-317" type="line" smooth="yes"/>
      <point x="520.0" y="-348"/>
      <point x="550.0" y="-362"/>
      <point x="575.0" y="-362" type="curve" smooth="yes"/>
      <point x="600.0" y="-362"/>
      <point x="622.0" y="-346"/>
      <point x="622.0" y="-319" type="curve" smooth="yes"/>
      <point x="622.0" y="-160" type="line"/>
      <point x="689.0" y="-160" type="line"/>
      <point x="689.0" y="-150" type="line"/>
      <point x="612.0" y="-150" type="line"/>
      <point x="612.0" y="-319" type="line" smooth="yes"/>
      <point x="612.0" y="-340"/>
      <point x="594.0" y="-352"/>
      <point x="575.0" y="-352" type="curve" smooth="yes"/>
      <point x="552.0" y="-352"/>
      <point x="526.0" y="-338"/>
      <point x="506.0" y="-311" type="curve" smooth="yes"/>
      <point x="70.0" y="269" type="line" smooth="yes"/>
      <point x="48.0" y="297"/>
      <point x="38.0" y="329"/>
      <point x="38.0" y="361" type="curve" smooth="yes"/>
      <point x="38.0" y="393"/>
      <point x="48.0" y="425"/>
      <point x="70.0" y="453" type="curve" smooth="yes"/>
      <point x="506.0" y="1033" type="line" smooth="yes"/>
      <point x="527.0" y="1060"/>
      <point x="552.0" y="1074"/>
      <point x="575.0" y="1074" type="curve" smooth="yes"/>
      <point x="594.0" y="1074"/>
      <point x="612.0" y="1062"/>
      <point x="612.0" y="1041" type="curve" smooth="yes"/>
      <point x="612.0" y="870" type="line"/>
    </contour>
  </outline>
</glyph>
<glyph name="uni2B1B.chevron_s" format="1">
  <advance width="1280"/>
  <outline>
    <contour>
      <point x="117.0" y="974" type="curve" smooth="yes"/>
      <point x="117.0" y="-28" type="line" smooth="yes"/>
      <point x="117.0" y="-42"/>
      <point x="123.0" y="-49"/>
      <point x="140.0" y="-56" type="curve" smooth="yes"/>
      <point x="614.0" y="-245" type="line"/>
      <point x="627.0" y="-249"/>
      <point x="644.0" y="-249"/>
      <point x="657.0" y="-245" type="curve"/>
      <point x="1134.0" y="-56" type="line" smooth="yes"/>
      <point x="1151.0" y="-49"/>
      <point x="1157.0" y="-42"/>
      <point x="1157.0" y="-28" type="curve" smooth="yes"/>
      <point x="1157.0" y="970" type="line" smooth="yes"/>
      <point x="1157.0" y="982"/>
      <point x="1153.0" y="989"/>
      <point x="1144.0" y="986" type="curve" smooth="yes"/>
      <point x="637.0" y="785" type="line"/>
      <point x="129.0" y="986" type="line"/>
      <point x="122.0" y="989"/>
      <point x="117.0" y="986"/>
    </contour>
    <contour>
      <point x="637.0" y="774" type="line"/>
      <point x="639.0" y="774" type="line"/>
      <point x="1147.0" y="976" type="line"/>
      <point x="1147.0" y="-28" type="line"/>
      <point x="1147.0" y="-38"/>
      <point x="1139.0" y="-43"/>
      <point x="1130.0" y="-46" type="curve" smooth="yes"/>
      <point x="653.0" y="-235" type="line"/>
      <point x="642.0" y="-239"/>
      <point x="629.0" y="-239"/>
      <point x="618.0" y="-235" type="curve"/>
      <point x="144.0" y="-46" type="line" smooth="yes"/>
      <point x="135.0" y="-43"/>
      <point x="127.0" y="-38"/>
      <point x="127.0" y="-28" type="curve" smooth="yes"/>
      <point x="127.0" y="975" type="line"/>
    </contour>
  </outline>
</glyph>
<glyph name="uni2B1B.chevron_w" format="1">
  <advance width="1280.0"/>
  <outline>
    <contour>
      <point x="1251.0" y="-160" type="line" smooth="yes"/>
      <point x="1263.0" y="-160"/>
      <point x="1266.0" y="-155"/>
      <point x="1263.0" y="-148" type="curve"/>
      <point x="1062.0" y="360" type="line"/>
      <point x="1263.0" y="867" type="line" smooth="yes"/>
      <point x="1266.0" y="876"/>
      <point x="1259.0" y="880"/>
      <point x="1247.0" y="880" type="curve" smooth="yes"/>
      <point x="249.0" y="880" type="line" smooth="yes"/>
      <point x="235.0" y="880"/>
      <point x="228.0" y="874"/>
      <point x="221.0" y="857" type="curve" smooth="yes"/>
      <point x="32.0" y="380" type="line"/>
      <point x="28.0" y="367"/>
      <point x="28.0" y="350"/>
      <point x="32.0" y="337" type="curve"/>
      <point x="221.0" y="-137" type="line" smooth="yes"/>
      <point x="228.0" y="-154"/>
      <point x="235.0" y="-160"/>
      <point x="249.0" y="-160" type="curve" smooth="yes"/>
    </contour>
    <contour>
      <point x="1051.0" y="360" type="line"/>
      <point x="1252.0" y="-150" type="line"/>
      <point x="249.0" y="-150" type="line" smooth="yes"/>
      <point x="239.0" y="-150"/>
      <point x="234.0" y="-142"/>
      <point x="231.0" y="-133" type="curve" smooth="yes"/>
      <point x="42.0" y="341" type="line"/>
      <point x="38.0" y="352"/>
      <point x="38.0" y="365"/>
      <point x="42.0" y="376" type="curve"/>
      <point x="231.0" y="853" type="line" smooth="yes"/>
      <point x="234.0" y="862"/>
      <point x="239.0" y="870"/>
      <point x="249.0" y="870" type="curve"/>
      <point x="1253.0" y="870" type="line"/>
      <point x="1051.0" y="362" type="line"/>
    </contour>
  </outline>
</glyph>
<glyph name="uni2B1B.semichevron_w" format="1">
  <advance width="650.0"/>
  <outline>
    <contour>
      <point x="-40.0" y="870" type="line"/>
      <point x="615.0" y="870" type="line" smooth="yes"/>
      <point x="622.0" y="870"/>
      <point x="618.0" y="861"/>
      <point x="617.0" y="859" type="curve" smooth="yes"/>
      <point x="419.0" y="362" type="line"/>
      <point x="419.0" y="360" type="line"/>
      <point x="423.0" y="349" type="line"/>
      <point x="615.0" y="-135" type="line" smooth="yes"/>
      <point x="616.0" y="-136"/>
      <point x="623.0" y="-150"/>
      <point x="615.0" y="-150" type="curve" smooth="yes"/>
      <point x="-40.0" y="-150" type="line"/>
      <point x="-40.0" y="-160" type="line"/>
      <point x="615.0" y="-160" type="line" smooth="yes"/>
      <point x="629.0" y="-160"/>
      <point x="630.0" y="-144"/>
      <point x="625.0" y="-131" type="curve" smooth="yes"/>
      <point x="433.0" y="353" type="line"/>
      <point x="430.0" y="360" type="line"/>
      <point x="627.0" y="855" type="line" smooth="yes"/>
      <point x="632.0" y="869"/>
      <point x="628.0" y="880"/>
      <point x="615.0" y="880" type="curve" smooth="yes"/>
      <point x="-40.0" y="880" type="line"/>
    </contour>
  </outline>
</glyph>
